<?xml version="1.0" encoding="utf-8" standalone="no"?>
<!DOCTYPE svg PUBLIC "-//W3C//DTD SVG 1.1//EN"
  "http://www.w3.org/Graphics/SVG/1.1/DTD/svg11.dtd">
<svg xmlns:xlink="http://www.w3.org/1999/xlink" width="429.21pt" height="284.31pt" viewBox="0 0 429.21 284.31" xmlns="http://www.w3.org/2000/svg" version="1.1">
 <metadata>
  <rdf:RDF xmlns:dc="http://purl.org/dc/elements/1.1/" xmlns:cc="http://creativecommons.org/ns#" xmlns:rdf="http://www.w3.org/1999/02/22-rdf-syntax-ns#">
   <cc:Work>
    <dc:type rdf:resource="http://purl.org/dc/dcmitype/StillImage"/>
    <dc:date>2022-11-01T17:36:45.274722</dc:date>
    <dc:format>image/svg+xml</dc:format>
    <dc:creator>
     <cc:Agent>
      <dc:title>Matplotlib v3.6.1, https://matplotlib.org/</dc:title>
     </cc:Agent>
    </dc:creator>
   </cc:Work>
  </rdf:RDF>
 </metadata>
 <defs>
  <style type="text/css">*{stroke-linejoin: round; stroke-linecap: butt}</style>
 </defs>
 <g id="figure_1">
  <g id="patch_1">
   <path d="M 0 284.31 
L 429.21 284.31 
L 429.21 0 
L 0 0 
z
" style="fill: #ffffff"/>
  </g>
  <g id="axes_1">
   <g id="patch_2">
    <path d="M 29.47 211.12 
L 422.01 211.12 
L 422.01 7.2 
L 29.47 7.2 
z
" style="fill: #ffffff"/>
   </g>
   <g id="patch_3">
    <path d="M 41.736875 211.12 
L 66.270625 211.12 
L 66.270625 202.933843 
L 41.736875 202.933843 
z
" clip-path="url(#pb2038dc96d)" style="fill: #1f77b4"/>
   </g>
   <g id="patch_4">
    <path d="M 90.804375 211.12 
L 115.338125 211.12 
L 115.338125 209.144031 
L 90.804375 209.144031 
z
" clip-path="url(#pb2038dc96d)" style="fill: #1f77b4"/>
   </g>
   <g id="patch_5">
    <path d="M 139.871875 211.12 
L 164.405625 211.12 
L 164.405625 210.837719 
L 139.871875 210.837719 
z
" clip-path="url(#pb2038dc96d)" style="fill: #1f77b4"/>
   </g>
   <g id="patch_6">
    <path d="M 188.939375 211.12 
L 213.473125 211.12 
L 213.473125 211.12 
L 188.939375 211.12 
z
" clip-path="url(#pb2038dc96d)" style="fill: #1f77b4"/>
   </g>
   <g id="patch_7">
    <path d="M 238.006875 211.12 
L 262.540625 211.12 
L 262.540625 208.86175 
L 238.006875 208.86175 
z
" clip-path="url(#pb2038dc96d)" style="fill: #1f77b4"/>
   </g>
   <g id="patch_8">
    <path d="M 287.074375 211.12 
L 311.608125 211.12 
L 311.608125 211.12 
L 287.074375 211.12 
z
" clip-path="url(#pb2038dc96d)" style="fill: #1f77b4"/>
   </g>
   <g id="patch_9">
    <path d="M 336.141875 211.12 
L 360.675625 211.12 
L 360.675625 211.12 
L 336.141875 211.12 
z
" clip-path="url(#pb2038dc96d)" style="fill: #1f77b4"/>
   </g>
   <g id="patch_10">
    <path d="M 385.209375 211.12 
L 409.743125 211.12 
L 409.743125 211.12 
L 385.209375 211.12 
z
" clip-path="url(#pb2038dc96d)" style="fill: #1f77b4"/>
   </g>
   <g id="patch_11">
    <path d="M 41.736875 202.933843 
L 66.270625 202.933843 
L 66.270625 154.099181 
L 41.736875 154.099181 
z
" clip-path="url(#pb2038dc96d)" style="fill: #ff7f0e"/>
   </g>
   <g id="patch_12">
    <path d="M 90.804375 209.144031 
L 115.338125 209.144031 
L 115.338125 185.996966 
L 90.804375 185.996966 
z
" clip-path="url(#pb2038dc96d)" style="fill: #ff7f0e"/>
   </g>
   <g id="patch_13">
    <path d="M 139.871875 210.837719 
L 164.405625 210.837719 
L 164.405625 203.780687 
L 139.871875 203.780687 
z
" clip-path="url(#pb2038dc96d)" style="fill: #ff7f0e"/>
   </g>
   <g id="patch_14">
    <path d="M 188.939375 211.12 
L 213.473125 211.12 
L 213.473125 204.909812 
L 188.939375 204.909812 
z
" clip-path="url(#pb2038dc96d)" style="fill: #ff7f0e"/>
   </g>
   <g id="patch_15">
    <path d="M 238.006875 208.86175 
L 262.540625 208.86175 
L 262.540625 208.014906 
L 238.006875 208.014906 
z
" clip-path="url(#pb2038dc96d)" style="fill: #ff7f0e"/>
   </g>
   <g id="patch_16">
    <path d="M 287.074375 211.12 
L 311.608125 211.12 
L 311.608125 211.12 
L 287.074375 211.12 
z
" clip-path="url(#pb2038dc96d)" style="fill: #ff7f0e"/>
   </g>
   <g id="patch_17">
    <path d="M 336.141875 211.12 
L 360.675625 211.12 
L 360.675625 211.12 
L 336.141875 211.12 
z
" clip-path="url(#pb2038dc96d)" style="fill: #ff7f0e"/>
   </g>
   <g id="patch_18">
    <path d="M 385.209375 211.12 
L 409.743125 211.12 
L 409.743125 211.12 
L 385.209375 211.12 
z
" clip-path="url(#pb2038dc96d)" style="fill: #ff7f0e"/>
   </g>
   <g id="patch_19">
    <path d="M 41.736875 154.099181 
L 66.270625 154.099181 
L 66.270625 134.904053 
L 41.736875 134.904053 
z
" clip-path="url(#pb2038dc96d)" style="fill: #2ca02c"/>
   </g>
   <g id="patch_20">
    <path d="M 90.804375 185.996966 
L 115.338125 185.996966 
L 115.338125 180.915903 
L 90.804375 180.915903 
z
" clip-path="url(#pb2038dc96d)" style="fill: #2ca02c"/>
   </g>
   <g id="patch_21">
    <path d="M 139.871875 203.780687 
L 164.405625 203.780687 
L 164.405625 202.933843 
L 139.871875 202.933843 
z
" clip-path="url(#pb2038dc96d)" style="fill: #2ca02c"/>
   </g>
   <g id="patch_22">
    <path d="M 188.939375 204.909812 
L 213.473125 204.909812 
L 213.473125 202.36928 
L 188.939375 202.36928 
z
" clip-path="url(#pb2038dc96d)" style="fill: #2ca02c"/>
   </g>
   <g id="patch_23">
    <path d="M 238.006875 208.014906 
L 262.540625 208.014906 
L 262.540625 207.732625 
L 238.006875 207.732625 
z
" clip-path="url(#pb2038dc96d)" style="fill: #2ca02c"/>
   </g>
   <g id="patch_24">
    <path d="M 287.074375 211.12 
L 311.608125 211.12 
L 311.608125 210.837719 
L 287.074375 210.837719 
z
" clip-path="url(#pb2038dc96d)" style="fill: #2ca02c"/>
   </g>
   <g id="patch_25">
    <path d="M 336.141875 211.12 
L 360.675625 211.12 
L 360.675625 211.12 
L 336.141875 211.12 
z
" clip-path="url(#pb2038dc96d)" style="fill: #2ca02c"/>
   </g>
   <g id="patch_26">
    <path d="M 385.209375 211.12 
L 409.743125 211.12 
L 409.743125 210.837719 
L 385.209375 210.837719 
z
" clip-path="url(#pb2038dc96d)" style="fill: #2ca02c"/>
   </g>
   <g id="patch_27">
    <path d="M 41.736875 134.904053 
L 66.270625 134.904053 
L 66.270625 108.369612 
L 41.736875 108.369612 
z
" clip-path="url(#pb2038dc96d)" style="fill: #d62728"/>
   </g>
   <g id="patch_28">
    <path d="M 90.804375 180.915903 
L 115.338125 180.915903 
L 115.338125 165.108151 
L 90.804375 165.108151 
z
" clip-path="url(#pb2038dc96d)" style="fill: #d62728"/>
   </g>
   <g id="patch_29">
    <path d="M 139.871875 202.933843 
L 164.405625 202.933843 
L 164.405625 196.723654 
L 139.871875 196.723654 
z
" clip-path="url(#pb2038dc96d)" style="fill: #d62728"/>
   </g>
   <g id="patch_30">
    <path d="M 188.939375 202.36928 
L 213.473125 202.36928 
L 213.473125 193.053998 
L 188.939375 193.053998 
z
" clip-path="url(#pb2038dc96d)" style="fill: #d62728"/>
   </g>
   <g id="patch_31">
    <path d="M 238.006875 207.732625 
L 262.540625 207.732625 
L 262.540625 206.603499 
L 238.006875 206.603499 
z
" clip-path="url(#pb2038dc96d)" style="fill: #d62728"/>
   </g>
   <g id="patch_32">
    <path d="M 287.074375 210.837719 
L 311.608125 210.837719 
L 311.608125 210.555437 
L 287.074375 210.555437 
z
" clip-path="url(#pb2038dc96d)" style="fill: #d62728"/>
   </g>
   <g id="patch_33">
    <path d="M 336.141875 211.12 
L 360.675625 211.12 
L 360.675625 211.12 
L 336.141875 211.12 
z
" clip-path="url(#pb2038dc96d)" style="fill: #d62728"/>
   </g>
   <g id="patch_34">
    <path d="M 385.209375 211.12 
L 409.743125 211.12 
L 409.743125 211.12 
L 385.209375 211.12 
z
" clip-path="url(#pb2038dc96d)" style="fill: #d62728"/>
   </g>
   <g id="patch_35">
    <path d="M 41.736875 108.369612 
L 66.270625 108.369612 
L 66.270625 28.201728 
L 41.736875 28.201728 
z
" clip-path="url(#pb2038dc96d)" style="fill: #9467bd"/>
   </g>
   <g id="patch_36">
    <path d="M 90.804375 165.108151 
L 115.338125 165.108151 
L 115.338125 146.477586 
L 90.804375 146.477586 
z
" clip-path="url(#pb2038dc96d)" style="fill: #9467bd"/>
   </g>
   <g id="patch_37">
    <path d="M 139.871875 196.723654 
L 164.405625 196.723654 
L 164.405625 190.231185 
L 139.871875 190.231185 
z
" clip-path="url(#pb2038dc96d)" style="fill: #9467bd"/>
   </g>
   <g id="patch_38">
    <path d="M 188.939375 193.053998 
L 213.473125 193.053998 
L 213.473125 190.795748 
L 188.939375 190.795748 
z
" clip-path="url(#pb2038dc96d)" style="fill: #9467bd"/>
   </g>
   <g id="patch_39">
    <path d="M 238.006875 206.603499 
L 262.540625 206.603499 
L 262.540625 204.909812 
L 238.006875 204.909812 
z
" clip-path="url(#pb2038dc96d)" style="fill: #9467bd"/>
   </g>
   <g id="patch_40">
    <path d="M 287.074375 210.555437 
L 311.608125 210.555437 
L 311.608125 209.708594 
L 287.074375 209.708594 
z
" clip-path="url(#pb2038dc96d)" style="fill: #9467bd"/>
   </g>
   <g id="patch_41">
    <path d="M 336.141875 211.12 
L 360.675625 211.12 
L 360.675625 211.12 
L 336.141875 211.12 
z
" clip-path="url(#pb2038dc96d)" style="fill: #9467bd"/>
   </g>
   <g id="patch_42">
    <path d="M 385.209375 211.12 
L 409.743125 211.12 
L 409.743125 211.12 
L 385.209375 211.12 
z
" clip-path="url(#pb2038dc96d)" style="fill: #9467bd"/>
   </g>
   <g id="patch_43">
    <path d="M 41.736875 28.201728 
L 66.270625 28.201728 
L 66.270625 16.910476 
L 41.736875 16.910476 
z
" clip-path="url(#pb2038dc96d)" style="fill: #8c564b"/>
   </g>
   <g id="patch_44">
    <path d="M 90.804375 146.477586 
L 115.338125 146.477586 
L 115.338125 140.549679 
L 90.804375 140.549679 
z
" clip-path="url(#pb2038dc96d)" style="fill: #8c564b"/>
   </g>
   <g id="patch_45">
    <path d="M 139.871875 190.231185 
L 164.405625 190.231185 
L 164.405625 187.126091 
L 139.871875 187.126091 
z
" clip-path="url(#pb2038dc96d)" style="fill: #8c564b"/>
   </g>
   <g id="patch_46">
    <path d="M 188.939375 190.795748 
L 213.473125 190.795748 
L 213.473125 187.972935 
L 188.939375 187.972935 
z
" clip-path="url(#pb2038dc96d)" style="fill: #8c564b"/>
   </g>
   <g id="patch_47">
    <path d="M 238.006875 204.909812 
L 262.540625 204.909812 
L 262.540625 204.345249 
L 238.006875 204.345249 
z
" clip-path="url(#pb2038dc96d)" style="fill: #8c564b"/>
   </g>
   <g id="patch_48">
    <path d="M 287.074375 209.708594 
L 311.608125 209.708594 
L 311.608125 209.426312 
L 287.074375 209.426312 
z
" clip-path="url(#pb2038dc96d)" style="fill: #8c564b"/>
   </g>
   <g id="patch_49">
    <path d="M 336.141875 211.12 
L 360.675625 211.12 
L 360.675625 210.273156 
L 336.141875 210.273156 
z
" clip-path="url(#pb2038dc96d)" style="fill: #8c564b"/>
   </g>
   <g id="patch_50">
    <path d="M 385.209375 211.12 
L 409.743125 211.12 
L 409.743125 211.12 
L 385.209375 211.12 
z
" clip-path="url(#pb2038dc96d)" style="fill: #8c564b"/>
   </g>
   <g id="matplotlib.axis_1">
    <g id="xtick_1">
     <g id="line2d_1">
      <defs>
       <path id="made3666fba" d="M 0 0 
L 0 3.5 
" style="stroke: #000000; stroke-width: 0.2"/>
      </defs>
      <g>
       <use xlink:href="#made3666fba" x="54.00375" y="211.12" style="stroke: #000000; stroke-width: 0.2"/>
      </g>
     </g>
     <g id="text_1">
      <!-- 음식 -->
      <g transform="translate(56.21125 232.0725) rotate(-90) scale(0.08 -0.08)">
       <defs>
        <path id="KoPubDotumMedium-c74c" d="M 787 3750 
Q 787 4256 1296 4569 
Q 1805 4883 2784 4883 
Q 3763 4883 4268 4566 
Q 4774 4250 4774 3750 
Q 4774 3238 4272 2940 
Q 3770 2643 2784 2643 
Q 1805 2643 1296 2940 
Q 787 3238 787 3750 
z
M 4230 3750 
Q 4230 4109 3830 4301 
Q 3430 4493 2784 4493 
Q 2125 4493 1728 4304 
Q 1331 4115 1331 3750 
Q 1331 3386 1721 3213 
Q 2112 3040 2784 3040 
Q 3437 3040 3833 3213 
Q 4230 3386 4230 3750 
z
M 5376 1792 
L 179 1792 
L 179 2221 
L 5376 2221 
L 5376 1792 
z
M 1376 -352 
L 4166 -352 
L 4166 755 
L 1376 755 
L 1376 -352 
z
M 1011 1171 
L 4544 1171 
Q 4621 1171 4649 1142 
Q 4678 1114 4678 1037 
L 4678 -634 
Q 4678 -710 4649 -739 
Q 4621 -768 4544 -768 
L 1011 -768 
Q 934 -768 905 -739 
Q 877 -710 877 -634 
L 877 1037 
Q 877 1114 905 1142 
Q 934 1171 1011 1171 
z
" transform="scale(0.015625)"/>
        <path id="KoPubDotumMedium-c2dd" d="M 141 1958 
Q 813 2272 1245 2768 
Q 1677 3264 1677 4000 
L 1677 4698 
L 2208 4698 
L 2208 4000 
Q 2208 3661 2323 3376 
Q 2438 3091 2643 2861 
Q 2842 2624 3114 2448 
Q 3386 2272 3693 2163 
L 3366 1773 
Q 2925 1984 2537 2288 
Q 2150 2592 1939 3021 
Q 1786 2579 1408 2224 
Q 1030 1869 544 1619 
L 141 1958 
z
M 4928 4838 
L 4928 1453 
L 4429 1453 
L 4429 4838 
L 4928 4838 
z
M 4787 1146 
Q 4864 1146 4893 1117 
Q 4922 1088 4922 1011 
L 4922 -870 
L 4410 -870 
L 4410 710 
L 1158 710 
L 1158 1146 
L 4787 1146 
z
" transform="scale(0.015625)"/>
       </defs>
       <use xlink:href="#KoPubDotumMedium-c74c"/>
       <use xlink:href="#KoPubDotumMedium-c2dd" x="87.199982"/>
      </g>
     </g>
    </g>
    <g id="xtick_2">
     <g id="line2d_2">
      <g>
       <use xlink:href="#made3666fba" x="103.07125" y="211.12" style="stroke: #000000; stroke-width: 0.2"/>
      </g>
     </g>
     <g id="text_2">
      <!-- 소매 -->
      <g transform="translate(105.27875 232.0725) rotate(-90) scale(0.08 -0.08)">
       <defs>
        <path id="KoPubDotumMedium-c18c" d="M 3046 4141 
Q 3046 3750 3238 3395 
Q 3430 3040 3731 2746 
Q 4032 2458 4406 2243 
Q 4781 2029 5139 1926 
L 4787 1542 
Q 4480 1658 4176 1827 
Q 3872 1997 3603 2214 
Q 3334 2438 3120 2697 
Q 2906 2957 2784 3258 
Q 2509 2656 1968 2221 
Q 1427 1786 774 1536 
L 397 1926 
Q 781 2042 1158 2256 
Q 1536 2470 1830 2752 
Q 2131 3040 2316 3392 
Q 2502 3744 2502 4141 
L 2502 4608 
L 3046 4608 
L 3046 4141 
z
M 5382 -115 
L 173 -115 
L 173 320 
L 2515 320 
L 2515 1747 
L 3034 1747 
L 3034 320 
L 5382 320 
L 5382 -115 
z
" transform="scale(0.015625)"/>
        <path id="KoPubDotumMedium-b9e4" d="M 1094 1056 
L 2157 1056 
L 2157 4038 
L 1094 4038 
L 1094 1056 
z
M 742 4467 
L 2502 4467 
Q 2579 4467 2608 4438 
Q 2637 4410 2637 4333 
L 2637 755 
Q 2637 678 2608 649 
Q 2579 621 2502 621 
L 742 621 
Q 666 621 637 649 
Q 608 678 608 755 
L 608 4333 
Q 608 4410 637 4438 
Q 666 4467 742 4467 
z
M 3750 4742 
L 3750 2899 
L 4493 2899 
L 4493 4838 
L 4986 4838 
L 4986 -838 
L 4493 -838 
L 4493 2413 
L 3750 2413 
L 3750 -563 
L 3264 -563 
L 3264 4742 
L 3750 4742 
z
" transform="scale(0.015625)"/>
       </defs>
       <use xlink:href="#KoPubDotumMedium-c18c"/>
       <use xlink:href="#KoPubDotumMedium-b9e4" x="87.199982"/>
      </g>
     </g>
    </g>
    <g id="xtick_3">
     <g id="line2d_3">
      <g>
       <use xlink:href="#made3666fba" x="152.13875" y="211.12" style="stroke: #000000; stroke-width: 0.2"/>
      </g>
     </g>
     <g id="text_3">
      <!-- 생활서비스 -->
      <g transform="translate(154.34625 253.00125) rotate(-90) scale(0.08 -0.08)">
       <defs>
        <path id="KoPubDotumMedium-c0dd" d="M 2720 1837 
Q 2355 2061 2070 2349 
Q 1786 2637 1619 3046 
Q 1466 2598 1181 2259 
Q 896 1920 518 1651 
L 102 1990 
Q 768 2406 1056 2912 
Q 1344 3418 1344 4147 
L 1344 4672 
L 1869 4672 
L 1869 4141 
Q 1869 3450 2176 2963 
Q 2483 2477 3053 2202 
L 2720 1837 
z
M 3808 4742 
L 3808 3462 
L 4506 3462 
L 4506 4838 
L 4992 4838 
L 4992 1389 
L 4506 1389 
L 4506 3008 
L 3808 3008 
L 3808 1587 
L 3315 1587 
L 3315 4742 
L 3808 4742 
z
M 1062 218 
Q 1062 742 1600 1056 
Q 2138 1370 3059 1370 
Q 3981 1370 4512 1053 
Q 5043 736 5043 218 
Q 5043 -307 4521 -620 
Q 4000 -934 3059 -934 
Q 2138 -934 1600 -627 
Q 1062 -320 1062 218 
z
M 1606 218 
Q 1606 32 1718 -109 
Q 1830 -250 2022 -346 
Q 2221 -442 2486 -490 
Q 2752 -538 3059 -538 
Q 3674 -538 4083 -342 
Q 4493 -147 4493 211 
Q 4493 576 4083 771 
Q 3674 966 3059 966 
Q 2746 966 2480 918 
Q 2214 870 2022 774 
Q 1824 678 1715 537 
Q 1606 397 1606 218 
z
" transform="scale(0.015625)"/>
        <path id="KoPubDotumMedium-d65c" d="M 538 4288 
L 3661 4288 
L 3661 3930 
L 538 3930 
L 538 4288 
z
M 1312 4890 
L 2893 4890 
L 2893 4538 
L 1312 4538 
L 1312 4890 
z
M 2093 3738 
Q 2688 3738 3059 3542 
Q 3430 3347 3430 3034 
Q 3430 2765 3132 2585 
Q 2835 2406 2368 2368 
L 2368 1978 
Q 2528 1978 2755 1990 
Q 2982 2003 3219 2022 
Q 3456 2042 3677 2064 
Q 3898 2086 4058 2112 
L 4058 1754 
Q 3648 1690 3049 1645 
Q 2451 1600 1818 1600 
L 282 1600 
L 282 1965 
L 1837 1965 
L 1837 2368 
Q 1357 2406 1056 2582 
Q 755 2758 755 3027 
Q 755 3341 1126 3539 
Q 1498 3738 2093 3738 
z
M 2093 3398 
Q 1709 3398 1488 3296 
Q 1267 3194 1267 3021 
Q 1267 2867 1488 2768 
Q 1709 2669 2093 2669 
Q 2470 2669 2691 2768 
Q 2912 2867 2912 3021 
Q 2912 3194 2691 3296 
Q 2470 3398 2093 3398 
z
M 4774 4838 
L 4774 3450 
L 5568 3450 
L 5568 3014 
L 4774 3014 
L 4774 1491 
L 4282 1491 
L 4282 4838 
L 4774 4838 
z
M 4646 1216 
Q 4723 1216 4752 1187 
Q 4781 1158 4781 1082 
L 4781 192 
Q 4781 115 4752 86 
Q 4723 58 4646 58 
L 1702 58 
L 1702 -403 
L 4922 -403 
L 4922 -781 
L 1299 -781 
Q 1222 -781 1193 -752 
Q 1165 -723 1165 -646 
L 1165 282 
Q 1165 358 1193 387 
Q 1222 416 1299 416 
L 4243 416 
L 4243 832 
L 1165 832 
L 1165 1216 
L 4646 1216 
z
" transform="scale(0.015625)"/>
        <path id="KoPubDotumMedium-c11c" d="M 3174 3142 
L 4416 3142 
L 4416 4838 
L 4928 4838 
L 4928 -832 
L 4416 -832 
L 4416 2688 
L 3174 2688 
L 3174 3142 
z
M 2195 3501 
Q 2195 3059 2291 2678 
Q 2387 2298 2573 1984 
Q 2771 1626 3075 1334 
Q 3379 1043 3757 819 
Q 3661 742 3552 633 
Q 3443 525 3379 454 
Q 3174 589 2969 765 
Q 2765 941 2592 1152 
Q 2394 1382 2227 1651 
Q 2061 1920 1946 2234 
Q 1869 1952 1715 1677 
Q 1562 1402 1370 1152 
Q 1171 890 947 672 
Q 723 454 512 314 
Q 435 384 307 483 
Q 179 582 70 653 
Q 454 890 758 1206 
Q 1062 1523 1274 1901 
Q 1472 2266 1574 2691 
Q 1677 3117 1677 3590 
L 1677 4621 
L 2195 4621 
L 2195 3501 
z
" transform="scale(0.015625)"/>
        <path id="KoPubDotumMedium-be44" d="M 1152 1011 
L 2758 1011 
L 2758 2650 
L 1152 2650 
L 1152 1011 
z
M 646 704 
L 646 4563 
L 1152 4563 
L 1152 3098 
L 2758 3098 
L 2758 4563 
L 3251 4563 
L 3251 704 
Q 3251 627 3222 598 
Q 3194 570 3117 570 
L 781 570 
Q 704 570 675 598 
Q 646 627 646 704 
z
M 4883 4838 
L 4883 -832 
L 4384 -832 
L 4384 4838 
L 4883 4838 
z
" transform="scale(0.015625)"/>
        <path id="KoPubDotumMedium-c2a4" d="M 3053 4128 
Q 3053 3763 3229 3414 
Q 3405 3066 3699 2765 
Q 3994 2470 4371 2243 
Q 4749 2016 5152 1894 
L 4794 1517 
Q 4512 1613 4208 1782 
Q 3904 1952 3629 2182 
Q 3354 2406 3130 2678 
Q 2906 2950 2790 3258 
Q 2662 2957 2444 2688 
Q 2227 2419 1952 2195 
Q 1677 1971 1373 1795 
Q 1069 1619 781 1510 
L 397 1901 
Q 781 2016 1161 2230 
Q 1542 2445 1837 2733 
Q 2138 3021 2323 3376 
Q 2509 3731 2509 4128 
L 2509 4614 
L 3053 4614 
L 3053 4128 
z
M 5382 -51 
L 173 -51 
L 173 384 
L 5382 384 
L 5382 -51 
z
" transform="scale(0.015625)"/>
       </defs>
       <use xlink:href="#KoPubDotumMedium-c0dd"/>
       <use xlink:href="#KoPubDotumMedium-d65c" x="87.199982"/>
       <use xlink:href="#KoPubDotumMedium-c11c" x="174.399963"/>
       <use xlink:href="#KoPubDotumMedium-be44" x="261.599945"/>
       <use xlink:href="#KoPubDotumMedium-c2a4" x="348.799927"/>
      </g>
     </g>
    </g>
    <g id="xtick_4">
     <g id="line2d_4">
      <g>
       <use xlink:href="#made3666fba" x="201.20625" y="211.12" style="stroke: #000000; stroke-width: 0.2"/>
      </g>
     </g>
     <g id="text_4">
      <!-- 부동산 -->
      <g transform="translate(203.41375 239.04875) rotate(-90) scale(0.08 -0.08)">
       <defs>
        <path id="KoPubDotumMedium-bd80" d="M 1370 2643 
L 4173 2643 
L 4173 3571 
L 1370 3571 
L 1370 2643 
z
M 870 2349 
L 870 4717 
L 1370 4717 
L 1370 3987 
L 4173 3987 
L 4173 4717 
L 4678 4717 
L 4678 2349 
Q 4678 2272 4649 2243 
Q 4621 2214 4544 2214 
L 1005 2214 
Q 928 2214 899 2243 
Q 870 2272 870 2349 
z
M 5376 1062 
L 3053 1062 
L 3053 -832 
L 2541 -832 
L 2541 1062 
L 179 1062 
L 179 1498 
L 5376 1498 
L 5376 1062 
z
" transform="scale(0.015625)"/>
        <path id="KoPubDotumMedium-b3d9" d="M 1011 4672 
L 4691 4672 
L 4691 4256 
L 1382 4256 
L 1382 3270 
L 4749 3270 
L 4749 2848 
L 3034 2848 
L 3034 2080 
L 5376 2080 
L 5376 1645 
L 179 1645 
L 179 2080 
L 2515 2080 
L 2515 2848 
L 1011 2848 
Q 928 2848 902 2873 
Q 877 2899 877 2976 
L 877 4538 
Q 877 4614 905 4643 
Q 934 4672 1011 4672 
z
M 742 154 
Q 742 627 1267 937 
Q 1792 1248 2778 1248 
Q 3757 1248 4285 937 
Q 4813 627 4813 154 
Q 4813 -326 4288 -633 
Q 3763 -941 2778 -941 
Q 1792 -941 1267 -633 
Q 742 -326 742 154 
z
M 1299 160 
Q 1299 -186 1702 -368 
Q 2106 -550 2778 -550 
Q 3424 -550 3840 -368 
Q 4256 -186 4256 160 
Q 4256 486 3840 672 
Q 3424 858 2778 858 
Q 2106 858 1702 675 
Q 1299 493 1299 160 
z
" transform="scale(0.015625)"/>
        <path id="KoPubDotumMedium-c0b0" d="M 3232 1690 
Q 3053 1773 2851 1904 
Q 2650 2035 2458 2202 
Q 2266 2374 2096 2576 
Q 1926 2778 1824 3008 
Q 1734 2758 1580 2540 
Q 1427 2323 1235 2131 
Q 1043 1946 828 1792 
Q 614 1638 403 1523 
L 13 1875 
Q 326 2022 604 2230 
Q 883 2438 1094 2701 
Q 1306 2963 1427 3286 
Q 1549 3610 1549 3994 
L 1549 4698 
L 2080 4698 
L 2080 4038 
Q 2080 3680 2201 3369 
Q 2323 3059 2534 2810 
Q 2739 2560 3008 2374 
Q 3277 2189 3565 2086 
L 3232 1690 
z
M 4672 4838 
L 4672 3149 
L 5453 3149 
L 5453 2701 
L 4672 2701 
L 4672 678 
L 4173 678 
L 4173 4838 
L 4672 4838 
z
M 1120 1094 
L 1626 1094 
L 1626 -282 
L 4851 -282 
L 4851 -717 
L 1254 -717 
Q 1178 -717 1149 -688 
Q 1120 -659 1120 -582 
L 1120 1094 
z
" transform="scale(0.015625)"/>
       </defs>
       <use xlink:href="#KoPubDotumMedium-bd80"/>
       <use xlink:href="#KoPubDotumMedium-b3d9" x="87.199982"/>
       <use xlink:href="#KoPubDotumMedium-c0b0" x="174.399963"/>
      </g>
     </g>
    </g>
    <g id="xtick_5">
     <g id="line2d_5">
      <g>
       <use xlink:href="#made3666fba" x="250.27375" y="211.12" style="stroke: #000000; stroke-width: 0.2"/>
      </g>
     </g>
     <g id="text_5">
      <!-- 학문/교육 -->
      <g transform="translate(252.48125 248.72) rotate(-90) scale(0.08 -0.08)">
       <defs>
        <path id="KoPubDotumMedium-d559" d="M 390 4077 
L 3642 4077 
L 3642 3674 
L 390 3674 
L 390 4077 
z
M 2842 4442 
L 1158 4442 
L 1158 4851 
L 2842 4851 
L 2842 4442 
z
M 2010 3366 
Q 2637 3366 3027 3094 
Q 3418 2822 3418 2394 
Q 3418 2176 3309 1997 
Q 3200 1818 3014 1683 
Q 2829 1555 2569 1481 
Q 2310 1408 2010 1408 
Q 1702 1408 1443 1481 
Q 1184 1555 998 1683 
Q 813 1818 707 1997 
Q 602 2176 602 2394 
Q 602 2822 992 3094 
Q 1382 3366 2010 3366 
z
M 2010 2982 
Q 1587 2982 1353 2819 
Q 1120 2656 1120 2394 
Q 1120 2131 1353 1961 
Q 1587 1792 2010 1792 
Q 2426 1792 2662 1961 
Q 2899 2131 2899 2394 
Q 2899 2656 2662 2819 
Q 2426 2982 2010 2982 
z
M 5568 2784 
L 4781 2784 
L 4781 1216 
L 4282 1216 
L 4282 4838 
L 4781 4838 
L 4781 3226 
L 5568 3226 
L 5568 2784 
z
M 4646 909 
Q 4723 909 4752 880 
Q 4781 851 4781 774 
L 4781 -864 
L 4269 -864 
L 4269 467 
L 1069 467 
L 1069 909 
L 4646 909 
z
" transform="scale(0.015625)"/>
        <path id="KoPubDotumMedium-bb38" d="M 4205 3098 
L 4205 4250 
L 1344 4250 
L 1344 3098 
L 4205 3098 
z
M 3123 237 
L 2630 237 
L 2630 1536 
L 179 1536 
L 179 1965 
L 5376 1965 
L 5376 1536 
L 3123 1536 
L 3123 237 
z
M 4550 2669 
L 998 2669 
Q 922 2669 893 2697 
Q 864 2726 864 2803 
L 864 4538 
Q 864 4614 893 4643 
Q 922 4672 998 4672 
L 4550 4672 
Q 4627 4672 4656 4643 
Q 4685 4614 4685 4538 
L 4685 2803 
Q 4685 2726 4656 2697 
Q 4627 2669 4550 2669 
z
M 1011 -717 
Q 934 -717 905 -688 
Q 877 -659 877 -582 
L 877 966 
L 1363 966 
L 1363 -282 
L 4883 -282 
L 4883 -717 
L 1011 -717 
z
" transform="scale(0.015625)"/>
        <path id="DejaVuSans-2f" d="M 1625 4666 
L 2156 4666 
L 531 -594 
L 0 -594 
L 1625 4666 
z
" transform="scale(0.015625)"/>
        <path id="KoPubDotumMedium-ad50" d="M 4653 4506 
Q 4730 4506 4758 4477 
Q 4787 4448 4787 4371 
Q 4762 3994 4726 3581 
Q 4691 3168 4646 2746 
Q 4595 2323 4534 1913 
Q 4474 1504 4410 1139 
L 3891 1146 
Q 4026 1837 4128 2617 
Q 4230 3398 4256 4070 
L 781 4070 
L 781 4506 
L 4653 4506 
z
M 173 314 
L 1459 314 
L 1459 2451 
L 1952 2451 
L 1952 314 
L 2810 314 
L 2810 2451 
L 3309 2451 
L 3309 314 
L 5382 314 
L 5382 -128 
L 173 -128 
L 173 314 
z
" transform="scale(0.015625)"/>
        <path id="KoPubDotumMedium-c721" d="M 787 3725 
Q 787 4230 1296 4550 
Q 1805 4870 2784 4870 
Q 3763 4870 4268 4547 
Q 4774 4224 4774 3725 
Q 4774 3213 4272 2902 
Q 3770 2592 2784 2592 
Q 1805 2592 1296 2902 
Q 787 3213 787 3725 
z
M 4230 3725 
Q 4230 4083 3830 4278 
Q 3430 4474 2784 4474 
Q 2125 4474 1728 4282 
Q 1331 4090 1331 3725 
Q 1331 3360 1721 3177 
Q 2112 2995 2784 2995 
Q 3437 2995 3833 3177 
Q 4230 3360 4230 3725 
z
M 179 2163 
L 5376 2163 
L 5376 1734 
L 3974 1734 
L 3974 909 
L 4544 909 
Q 4621 909 4649 880 
Q 4678 851 4678 774 
L 4678 -883 
L 4166 -883 
L 4166 474 
L 800 474 
L 800 909 
L 1574 909 
L 1574 1734 
L 179 1734 
L 179 2163 
z
M 3482 909 
L 3482 1734 
L 2074 1734 
L 2074 909 
L 3482 909 
z
" transform="scale(0.015625)"/>
       </defs>
       <use xlink:href="#KoPubDotumMedium-d559"/>
       <use xlink:href="#KoPubDotumMedium-bb38" x="87.199982"/>
       <use xlink:href="#DejaVuSans-2f" x="174.399963"/>
       <use xlink:href="#KoPubDotumMedium-ad50" x="208.09137"/>
       <use xlink:href="#KoPubDotumMedium-c721" x="295.291351"/>
      </g>
     </g>
    </g>
    <g id="xtick_6">
     <g id="line2d_6">
      <g>
       <use xlink:href="#made3666fba" x="299.34125" y="211.12" style="stroke: #000000; stroke-width: 0.2"/>
      </g>
     </g>
     <g id="text_6">
      <!-- 관광/여가/오락 -->
      <g transform="translate(301.54875 265.3675) rotate(-90) scale(0.08 -0.08)">
       <defs>
        <path id="KoPubDotumMedium-ad00" d="M 3302 4608 
Q 3379 4608 3408 4579 
Q 3437 4550 3437 4474 
Q 3424 4211 3398 3939 
Q 3373 3667 3341 3411 
Q 3309 3149 3273 2921 
Q 3238 2694 3200 2522 
L 2701 2522 
Q 2733 2675 2765 2883 
Q 2797 3091 2822 3315 
Q 2854 3533 2873 3757 
Q 2893 3981 2912 4166 
L 595 4166 
L 595 4608 
L 3302 4608 
z
M 4237 550 
L 4237 4838 
L 4736 4838 
L 4736 3014 
L 5517 3014 
L 5517 2566 
L 4736 2566 
L 4736 550 
L 4237 550 
z
M 1920 3290 
L 1920 1939 
Q 2099 1939 2374 1952 
Q 2650 1965 2944 1990 
Q 3245 2010 3533 2042 
Q 3821 2074 4032 2112 
L 4032 1683 
Q 3622 1619 2825 1558 
Q 2029 1498 934 1498 
L 237 1498 
L 237 1939 
L 1434 1939 
L 1434 3290 
L 1920 3290 
z
M 1299 -717 
Q 1222 -717 1193 -688 
Q 1165 -659 1165 -582 
L 1165 973 
L 1670 973 
L 1670 -282 
L 4922 -282 
L 4922 -717 
L 1299 -717 
z
" transform="scale(0.015625)"/>
        <path id="KoPubDotumMedium-ad11" d="M 3302 4608 
Q 3379 4608 3408 4579 
Q 3437 4550 3437 4474 
Q 3411 3987 3350 3513 
Q 3290 3040 3206 2694 
L 2714 2694 
Q 2739 2835 2771 3020 
Q 2803 3206 2829 3411 
Q 2854 3610 2873 3808 
Q 2893 4006 2906 4173 
L 595 4173 
L 595 4608 
L 3302 4608 
z
M 4237 1331 
L 4237 4838 
L 4736 4838 
L 4736 3373 
L 5517 3373 
L 5517 2938 
L 4736 2938 
L 4736 1331 
L 4237 1331 
z
M 1920 3386 
L 1920 2163 
Q 2099 2163 2371 2176 
Q 2643 2189 2944 2214 
Q 3238 2240 3526 2269 
Q 3814 2298 4026 2336 
L 4026 1926 
Q 3622 1862 2867 1792 
Q 2112 1722 1171 1722 
L 230 1722 
L 230 2157 
L 1434 2157 
L 1434 3386 
L 1920 3386 
z
M 973 166 
Q 973 621 1469 937 
Q 1965 1254 2918 1254 
Q 3866 1254 4374 937 
Q 4883 621 4883 160 
Q 4883 -301 4374 -617 
Q 3866 -934 2925 -934 
Q 1971 -934 1472 -614 
Q 973 -294 973 166 
z
M 1504 160 
Q 1504 6 1609 -122 
Q 1715 -250 1907 -339 
Q 2093 -435 2355 -483 
Q 2618 -531 2925 -531 
Q 3539 -531 3942 -342 
Q 4346 -154 4346 160 
Q 4346 480 3942 669 
Q 3539 858 2925 858 
Q 2618 858 2358 806 
Q 2099 755 1907 666 
Q 1715 576 1609 448 
Q 1504 320 1504 160 
z
" transform="scale(0.015625)"/>
        <path id="KoPubDotumMedium-c5ec" d="M 480 2547 
Q 480 3104 589 3513 
Q 698 3923 883 4186 
Q 1075 4448 1331 4576 
Q 1587 4704 1888 4704 
Q 2272 4704 2592 4467 
Q 2912 4230 3098 3750 
L 4397 3750 
L 4397 4838 
L 4902 4838 
L 4902 -845 
L 4397 -845 
L 4397 1382 
L 3110 1382 
Q 2931 883 2604 636 
Q 2278 390 1888 390 
Q 1594 390 1338 518 
Q 1082 646 890 915 
Q 698 1184 589 1590 
Q 480 1997 480 2547 
z
M 3219 3315 
Q 3251 3142 3270 2950 
Q 3290 2758 3290 2547 
Q 3290 2342 3274 2163 
Q 3258 1984 3232 1824 
L 4397 1824 
L 4397 3315 
L 3219 3315 
z
M 979 2547 
Q 979 2202 1033 1891 
Q 1088 1581 1197 1350 
Q 1312 1114 1481 979 
Q 1651 845 1888 845 
Q 2118 845 2284 979 
Q 2451 1114 2566 1350 
Q 2675 1581 2729 1891 
Q 2784 2202 2784 2547 
Q 2784 2886 2729 3193 
Q 2675 3501 2566 3738 
Q 2458 3968 2288 4109 
Q 2118 4250 1888 4250 
Q 1651 4250 1478 4109 
Q 1306 3968 1197 3731 
Q 1082 3494 1030 3187 
Q 979 2880 979 2547 
z
" transform="scale(0.015625)"/>
        <path id="KoPubDotumMedium-ac00" d="M 595 4512 
L 2970 4512 
Q 3046 4512 3081 4483 
Q 3117 4454 3117 4378 
Q 3085 3712 2899 3117 
Q 2714 2522 2394 2010 
Q 2080 1498 1641 1075 
Q 1203 653 678 346 
L 269 698 
Q 1254 1216 1859 2077 
Q 2464 2938 2547 4070 
L 595 4070 
L 595 4512 
z
M 5498 2099 
L 4659 2099 
L 4659 -838 
L 4147 -838 
L 4147 4838 
L 4659 4838 
L 4659 2560 
L 5498 2560 
L 5498 2099 
z
" transform="scale(0.015625)"/>
        <path id="KoPubDotumMedium-c624" d="M 2790 2016 
Q 3085 2016 3347 2093 
Q 3610 2170 3808 2317 
Q 4000 2464 4115 2672 
Q 4230 2880 4230 3149 
Q 4230 3693 3827 3990 
Q 3424 4288 2790 4288 
Q 2144 4288 1744 3990 
Q 1344 3693 1344 3149 
Q 1344 2880 1453 2672 
Q 1562 2464 1754 2317 
Q 1946 2170 2211 2093 
Q 2477 2016 2790 2016 
z
M 2509 1600 
Q 1741 1664 1277 2077 
Q 813 2490 813 3149 
Q 813 3488 950 3776 
Q 1088 4064 1344 4269 
Q 1600 4480 1968 4598 
Q 2336 4717 2790 4717 
Q 3238 4717 3603 4598 
Q 3968 4480 4224 4269 
Q 4480 4064 4621 3776 
Q 4762 3488 4762 3149 
Q 4762 2816 4634 2544 
Q 4506 2272 4282 2067 
Q 4051 1869 3734 1744 
Q 3418 1619 3034 1594 
L 3034 320 
L 5382 320 
L 5382 -122 
L 173 -122 
L 173 320 
L 2509 320 
L 2509 1600 
z
" transform="scale(0.015625)"/>
        <path id="KoPubDotumMedium-b77d" d="M 672 3366 
L 2605 3366 
L 2605 4198 
L 538 4198 
L 538 4627 
L 2963 4627 
Q 3040 4627 3069 4598 
Q 3098 4570 3098 4493 
L 3098 3085 
Q 3098 3008 3069 2979 
Q 3040 2950 2963 2950 
L 1030 2950 
L 1030 2080 
L 1510 2080 
Q 1856 2080 2214 2096 
Q 2573 2112 2899 2144 
Q 3226 2170 3494 2205 
Q 3763 2240 3936 2278 
L 3936 1850 
Q 3750 1811 3465 1772 
Q 3181 1734 2842 1702 
Q 2502 1677 2124 1657 
Q 1747 1638 1376 1638 
L 672 1638 
Q 595 1638 566 1667 
Q 538 1696 538 1773 
L 538 3232 
Q 538 3309 566 3337 
Q 595 3366 672 3366 
z
M 5491 3040 
L 4717 3040 
L 4717 1325 
L 4218 1325 
L 4218 4838 
L 4717 4838 
L 4717 3482 
L 5491 3482 
L 5491 3040 
z
M 4582 1037 
Q 4659 1037 4688 1008 
Q 4717 979 4717 902 
L 4717 -870 
L 4205 -870 
L 4205 602 
L 1011 602 
L 1011 1037 
L 4582 1037 
z
" transform="scale(0.015625)"/>
       </defs>
       <use xlink:href="#KoPubDotumMedium-ad00"/>
       <use xlink:href="#KoPubDotumMedium-ad11" x="87.199982"/>
       <use xlink:href="#DejaVuSans-2f" x="174.399963"/>
       <use xlink:href="#KoPubDotumMedium-c5ec" x="208.09137"/>
       <use xlink:href="#KoPubDotumMedium-ac00" x="295.291351"/>
       <use xlink:href="#DejaVuSans-2f" x="382.491333"/>
       <use xlink:href="#KoPubDotumMedium-c624" x="416.182739"/>
       <use xlink:href="#KoPubDotumMedium-b77d" x="503.382721"/>
      </g>
     </g>
    </g>
    <g id="xtick_7">
     <g id="line2d_7">
      <g>
       <use xlink:href="#made3666fba" x="348.40875" y="211.12" style="stroke: #000000; stroke-width: 0.2"/>
      </g>
     </g>
     <g id="text_7">
      <!-- 숙박 -->
      <g transform="translate(350.61625 232.0725) rotate(-90) scale(0.08 -0.08)">
       <defs>
        <path id="KoPubDotumMedium-c219" d="M 4774 2637 
Q 4493 2701 4198 2819 
Q 3904 2938 3635 3104 
Q 3366 3264 3142 3469 
Q 2918 3674 2784 3917 
Q 2643 3674 2428 3469 
Q 2214 3264 1946 3104 
Q 1683 2944 1385 2825 
Q 1088 2707 781 2637 
L 448 3014 
Q 838 3098 1209 3245 
Q 1581 3392 1869 3597 
Q 2157 3795 2329 4051 
Q 2502 4307 2502 4614 
L 2502 4832 
L 3059 4832 
L 3059 4614 
Q 3059 4288 3254 4025 
Q 3450 3763 3750 3558 
Q 4051 3360 4409 3222 
Q 4768 3085 5101 3014 
L 4774 2637 
z
M 5376 1760 
L 3027 1760 
L 3027 979 
L 4550 979 
Q 4627 979 4656 950 
Q 4685 922 4685 845 
L 4685 -870 
L 4166 -870 
L 4166 550 
L 806 550 
L 806 979 
L 2502 979 
L 2502 1760 
L 179 1760 
L 179 2189 
L 5376 2189 
L 5376 1760 
z
" transform="scale(0.015625)"/>
        <path id="KoPubDotumMedium-bc15" d="M 1018 2298 
L 2605 2298 
L 2605 3258 
L 1018 3258 
L 1018 2298 
z
M 525 1997 
L 525 4646 
L 1018 4646 
L 1018 3693 
L 2605 3693 
L 2605 4646 
L 3098 4646 
L 3098 1997 
Q 3098 1920 3069 1891 
Q 3040 1862 2963 1862 
L 659 1862 
Q 582 1862 553 1891 
Q 525 1920 525 1997 
z
M 5491 3136 
L 4710 3136 
L 4710 1453 
L 4211 1453 
L 4211 4845 
L 4710 4845 
L 4710 3584 
L 5491 3584 
L 5491 3136 
z
M 1005 1146 
L 4582 1146 
Q 4659 1146 4688 1117 
Q 4717 1088 4717 1011 
L 4717 -870 
L 4211 -870 
L 4211 698 
L 1005 698 
L 1005 1146 
z
" transform="scale(0.015625)"/>
       </defs>
       <use xlink:href="#KoPubDotumMedium-c219"/>
       <use xlink:href="#KoPubDotumMedium-bc15" x="87.199982"/>
      </g>
     </g>
    </g>
    <g id="xtick_8">
     <g id="line2d_8">
      <g>
       <use xlink:href="#made3666fba" x="397.47625" y="211.12" style="stroke: #000000; stroke-width: 0.2"/>
      </g>
     </g>
     <g id="text_8">
      <!-- 스포츠 -->
      <g transform="translate(399.68375 239.04875) rotate(-90) scale(0.08 -0.08)">
       <defs>
        <path id="KoPubDotumMedium-d3ec" d="M 3648 4102 
L 1901 4102 
Q 1901 3853 1904 3606 
Q 1907 3360 1914 3117 
Q 1914 2867 1917 2620 
Q 1920 2374 1926 2131 
L 3622 2131 
Q 3622 2374 3625 2620 
Q 3629 2867 3635 3117 
Q 3635 3360 3638 3606 
Q 3642 3853 3648 4102 
z
M 4922 1702 
L 3034 1702 
L 3034 314 
L 5382 314 
L 5382 -115 
L 173 -115 
L 173 314 
L 2522 314 
L 2522 1702 
L 627 1702 
L 627 2131 
L 1421 2131 
Q 1414 2374 1411 2620 
Q 1408 2867 1408 3117 
Q 1402 3360 1398 3606 
Q 1395 3853 1395 4102 
L 762 4102 
L 762 4531 
L 4781 4531 
L 4781 4102 
L 4147 4102 
Q 4141 3603 4131 3110 
Q 4122 2618 4115 2131 
L 4922 2131 
L 4922 1702 
z
" transform="scale(0.015625)"/>
        <path id="KoPubDotumMedium-ce20" d="M 3840 4243 
L 1696 4243 
L 1696 4685 
L 3840 4685 
L 3840 4243 
z
M 435 1632 
Q 768 1702 1110 1836 
Q 1453 1971 1741 2163 
Q 2029 2355 2227 2608 
Q 2426 2861 2477 3181 
L 762 3181 
L 762 3629 
L 4794 3629 
L 4794 3181 
L 3072 3181 
Q 3110 2848 3321 2589 
Q 3533 2330 3834 2138 
Q 4128 1946 4470 1818 
Q 4813 1690 5114 1632 
L 4742 1216 
Q 4499 1267 4220 1376 
Q 3942 1485 3674 1651 
Q 3398 1811 3161 2035 
Q 2925 2259 2778 2547 
Q 2637 2291 2416 2076 
Q 2195 1862 1933 1696 
Q 1670 1523 1376 1401 
Q 1082 1280 806 1216 
L 435 1632 
z
M 173 365 
L 5382 365 
L 5382 -70 
L 173 -70 
L 173 365 
z
" transform="scale(0.015625)"/>
       </defs>
       <use xlink:href="#KoPubDotumMedium-c2a4"/>
       <use xlink:href="#KoPubDotumMedium-d3ec" x="87.199982"/>
       <use xlink:href="#KoPubDotumMedium-ce20" x="174.399963"/>
      </g>
     </g>
    </g>
    <g id="text_9">
     <!-- 상가 업종 -->
     <g transform="translate(210.51625 275.44625) scale(0.08 -0.08)">
      <defs>
       <path id="KoPubDotumMedium-c0c1" d="M 19 2061 
Q 346 2208 624 2406 
Q 902 2605 1114 2867 
Q 1318 3123 1436 3446 
Q 1555 3770 1555 4173 
L 1555 4698 
L 2086 4698 
L 2086 4166 
Q 2086 3802 2208 3498 
Q 2330 3194 2534 2957 
Q 2739 2714 3008 2544 
Q 3277 2374 3565 2272 
L 3238 1875 
Q 3059 1965 2857 2086 
Q 2656 2208 2464 2368 
Q 2272 2522 2105 2714 
Q 1939 2906 1830 3136 
Q 1741 2893 1587 2681 
Q 1434 2470 1242 2285 
Q 1050 2106 835 1958 
Q 621 1811 410 1702 
L 19 2061 
z
M 4672 4838 
L 4672 3514 
L 5466 3514 
L 5466 3078 
L 4672 3078 
L 4672 1414 
L 4173 1414 
L 4173 4838 
L 4672 4838 
z
M 2880 -941 
Q 2003 -941 1481 -633 
Q 960 -326 960 198 
Q 960 454 1097 668 
Q 1235 883 1485 1030 
Q 1734 1178 2086 1261 
Q 2438 1344 2874 1344 
Q 3757 1344 4278 1030 
Q 4800 717 4800 198 
Q 4800 -333 4281 -637 
Q 3763 -941 2880 -941 
z
M 1498 198 
Q 1498 26 1603 -112 
Q 1709 -250 1894 -346 
Q 2080 -442 2329 -493 
Q 2579 -544 2874 -544 
Q 3475 -544 3872 -349 
Q 4269 -154 4269 192 
Q 4269 538 3875 733 
Q 3482 928 2874 928 
Q 2579 928 2326 877 
Q 2074 826 1888 736 
Q 1702 640 1600 505 
Q 1498 371 1498 198 
z
" transform="scale(0.015625)"/>
       <path id="DejaVuSans-20" transform="scale(0.015625)"/>
       <path id="KoPubDotumMedium-c5c5" d="M 1850 2010 
Q 1555 2010 1289 2112 
Q 1024 2214 826 2400 
Q 627 2579 512 2835 
Q 397 3091 397 3392 
Q 397 3693 509 3945 
Q 621 4198 819 4378 
Q 1018 4563 1283 4665 
Q 1549 4768 1850 4768 
Q 2118 4768 2368 4678 
Q 2618 4589 2810 4435 
Q 3008 4275 3136 4057 
Q 3264 3840 3302 3584 
L 4403 3584 
L 4403 4838 
L 4902 4838 
L 4902 1856 
L 4403 1856 
L 4403 3142 
L 3290 3142 
Q 3238 2893 3110 2681 
Q 2982 2470 2790 2323 
Q 2598 2176 2355 2093 
Q 2112 2010 1850 2010 
z
M 896 3386 
Q 896 3194 966 3024 
Q 1037 2854 1171 2733 
Q 1299 2605 1472 2534 
Q 1645 2464 1850 2464 
Q 2272 2464 2537 2733 
Q 2803 3002 2803 3386 
Q 2803 3776 2531 4048 
Q 2259 4320 1850 4320 
Q 1645 4320 1472 4243 
Q 1299 4166 1171 4045 
Q 1037 3917 966 3747 
Q 896 3578 896 3386 
z
M 1722 -358 
L 4403 -358 
L 4403 435 
L 1722 435 
L 1722 -358 
z
M 4896 -640 
Q 4896 -717 4867 -745 
Q 4838 -774 4762 -774 
L 1357 -774 
Q 1280 -774 1251 -745 
Q 1222 -717 1222 -640 
L 1222 1555 
L 1722 1555 
L 1722 851 
L 4403 851 
L 4403 1555 
L 4896 1555 
L 4896 -640 
z
" transform="scale(0.015625)"/>
       <path id="KoPubDotumMedium-c885" d="M 4730 4256 
L 3072 4256 
Q 3078 3994 3283 3782 
Q 3488 3571 3789 3418 
Q 4083 3258 4428 3158 
Q 4774 3059 5075 3021 
L 4755 2643 
Q 4518 2682 4230 2765 
Q 3942 2848 3667 2982 
Q 3392 3110 3152 3292 
Q 2912 3475 2778 3725 
Q 2643 3501 2425 3325 
Q 2208 3149 1946 3014 
Q 1677 2880 1379 2787 
Q 1082 2694 787 2643 
L 467 3027 
Q 800 3078 1152 3180 
Q 1504 3283 1798 3437 
Q 2086 3590 2275 3795 
Q 2464 4000 2477 4256 
L 826 4256 
L 826 4672 
L 4730 4672 
L 4730 4256 
z
M 3040 2906 
L 3040 2054 
L 5376 2054 
L 5376 1619 
L 186 1619 
L 186 2054 
L 2522 2054 
L 2522 2906 
L 3040 2906 
z
M 749 109 
Q 749 570 1257 864 
Q 1766 1158 2784 1158 
Q 3802 1158 4304 857 
Q 4806 557 4806 102 
Q 4806 -346 4307 -646 
Q 3808 -947 2784 -947 
Q 1760 -947 1254 -646 
Q 749 -346 749 109 
z
M 1306 109 
Q 1306 -205 1693 -381 
Q 2080 -557 2784 -557 
Q 3456 -557 3849 -381 
Q 4243 -205 4243 102 
Q 4243 422 3852 601 
Q 3462 781 2784 781 
Q 2080 781 1693 601 
Q 1306 422 1306 109 
z
" transform="scale(0.015625)"/>
      </defs>
      <use xlink:href="#KoPubDotumMedium-c0c1"/>
      <use xlink:href="#KoPubDotumMedium-ac00" x="87.199982"/>
      <use xlink:href="#DejaVuSans-20" x="174.399963"/>
      <use xlink:href="#KoPubDotumMedium-c5c5" x="206.187073"/>
      <use xlink:href="#KoPubDotumMedium-c885" x="293.387054"/>
     </g>
    </g>
   </g>
   <g id="matplotlib.axis_2">
    <g id="ytick_1">
     <g id="line2d_9">
      <defs>
       <path id="m14443dd8c7" d="M 0 0 
L -3.5 0 
" style="stroke: #000000; stroke-width: 0.2"/>
      </defs>
      <g>
       <use xlink:href="#m14443dd8c7" x="29.47" y="211.12" style="stroke: #000000; stroke-width: 0.2"/>
      </g>
     </g>
     <g id="text_10">
      <!-- 0 -->
      <g transform="translate(17.38 214.159375) scale(0.08 -0.08)">
       <defs>
        <path id="DejaVuSans-30" d="M 2034 4250 
Q 1547 4250 1301 3770 
Q 1056 3291 1056 2328 
Q 1056 1369 1301 889 
Q 1547 409 2034 409 
Q 2525 409 2770 889 
Q 3016 1369 3016 2328 
Q 3016 3291 2770 3770 
Q 2525 4250 2034 4250 
z
M 2034 4750 
Q 2819 4750 3233 4129 
Q 3647 3509 3647 2328 
Q 3647 1150 3233 529 
Q 2819 -91 2034 -91 
Q 1250 -91 836 529 
Q 422 1150 422 2328 
Q 422 3509 836 4129 
Q 1250 4750 2034 4750 
z
" transform="scale(0.015625)"/>
       </defs>
       <use xlink:href="#DejaVuSans-30"/>
      </g>
     </g>
    </g>
    <g id="ytick_2">
     <g id="line2d_10">
      <g>
       <use xlink:href="#m14443dd8c7" x="29.47" y="182.891872" style="stroke: #000000; stroke-width: 0.2"/>
      </g>
     </g>
     <g id="text_11">
      <!-- 100 -->
      <g transform="translate(7.2 185.931247) scale(0.08 -0.08)">
       <defs>
        <path id="DejaVuSans-31" d="M 794 531 
L 1825 531 
L 1825 4091 
L 703 3866 
L 703 4441 
L 1819 4666 
L 2450 4666 
L 2450 531 
L 3481 531 
L 3481 0 
L 794 0 
L 794 531 
z
" transform="scale(0.015625)"/>
       </defs>
       <use xlink:href="#DejaVuSans-31"/>
       <use xlink:href="#DejaVuSans-30" x="63.623047"/>
       <use xlink:href="#DejaVuSans-30" x="127.246094"/>
      </g>
     </g>
    </g>
    <g id="ytick_3">
     <g id="line2d_11">
      <g>
       <use xlink:href="#m14443dd8c7" x="29.47" y="154.663743" style="stroke: #000000; stroke-width: 0.2"/>
      </g>
     </g>
     <g id="text_12">
      <!-- 200 -->
      <g transform="translate(7.2 157.703118) scale(0.08 -0.08)">
       <defs>
        <path id="DejaVuSans-32" d="M 1228 531 
L 3431 531 
L 3431 0 
L 469 0 
L 469 531 
Q 828 903 1448 1529 
Q 2069 2156 2228 2338 
Q 2531 2678 2651 2914 
Q 2772 3150 2772 3378 
Q 2772 3750 2511 3984 
Q 2250 4219 1831 4219 
Q 1534 4219 1204 4116 
Q 875 4013 500 3803 
L 500 4441 
Q 881 4594 1212 4672 
Q 1544 4750 1819 4750 
Q 2544 4750 2975 4387 
Q 3406 4025 3406 3419 
Q 3406 3131 3298 2873 
Q 3191 2616 2906 2266 
Q 2828 2175 2409 1742 
Q 1991 1309 1228 531 
z
" transform="scale(0.015625)"/>
       </defs>
       <use xlink:href="#DejaVuSans-32"/>
       <use xlink:href="#DejaVuSans-30" x="63.623047"/>
       <use xlink:href="#DejaVuSans-30" x="127.246094"/>
      </g>
     </g>
    </g>
    <g id="ytick_4">
     <g id="line2d_12">
      <g>
       <use xlink:href="#m14443dd8c7" x="29.47" y="126.435615" style="stroke: #000000; stroke-width: 0.2"/>
      </g>
     </g>
     <g id="text_13">
      <!-- 300 -->
      <g transform="translate(7.2 129.47499) scale(0.08 -0.08)">
       <defs>
        <path id="DejaVuSans-33" d="M 2597 2516 
Q 3050 2419 3304 2112 
Q 3559 1806 3559 1356 
Q 3559 666 3084 287 
Q 2609 -91 1734 -91 
Q 1441 -91 1130 -33 
Q 819 25 488 141 
L 488 750 
Q 750 597 1062 519 
Q 1375 441 1716 441 
Q 2309 441 2620 675 
Q 2931 909 2931 1356 
Q 2931 1769 2642 2001 
Q 2353 2234 1838 2234 
L 1294 2234 
L 1294 2753 
L 1863 2753 
Q 2328 2753 2575 2939 
Q 2822 3125 2822 3475 
Q 2822 3834 2567 4026 
Q 2313 4219 1838 4219 
Q 1578 4219 1281 4162 
Q 984 4106 628 3988 
L 628 4550 
Q 988 4650 1302 4700 
Q 1616 4750 1894 4750 
Q 2613 4750 3031 4423 
Q 3450 4097 3450 3541 
Q 3450 3153 3228 2886 
Q 3006 2619 2597 2516 
z
" transform="scale(0.015625)"/>
       </defs>
       <use xlink:href="#DejaVuSans-33"/>
       <use xlink:href="#DejaVuSans-30" x="63.623047"/>
       <use xlink:href="#DejaVuSans-30" x="127.246094"/>
      </g>
     </g>
    </g>
    <g id="ytick_5">
     <g id="line2d_13">
      <g>
       <use xlink:href="#m14443dd8c7" x="29.47" y="98.207486" style="stroke: #000000; stroke-width: 0.2"/>
      </g>
     </g>
     <g id="text_14">
      <!-- 400 -->
      <g transform="translate(7.2 101.246861) scale(0.08 -0.08)">
       <defs>
        <path id="DejaVuSans-34" d="M 2419 4116 
L 825 1625 
L 2419 1625 
L 2419 4116 
z
M 2253 4666 
L 3047 4666 
L 3047 1625 
L 3713 1625 
L 3713 1100 
L 3047 1100 
L 3047 0 
L 2419 0 
L 2419 1100 
L 313 1100 
L 313 1709 
L 2253 4666 
z
" transform="scale(0.015625)"/>
       </defs>
       <use xlink:href="#DejaVuSans-34"/>
       <use xlink:href="#DejaVuSans-30" x="63.623047"/>
       <use xlink:href="#DejaVuSans-30" x="127.246094"/>
      </g>
     </g>
    </g>
    <g id="ytick_6">
     <g id="line2d_14">
      <g>
       <use xlink:href="#m14443dd8c7" x="29.47" y="69.979358" style="stroke: #000000; stroke-width: 0.2"/>
      </g>
     </g>
     <g id="text_15">
      <!-- 500 -->
      <g transform="translate(7.2 73.018733) scale(0.08 -0.08)">
       <defs>
        <path id="DejaVuSans-35" d="M 691 4666 
L 3169 4666 
L 3169 4134 
L 1269 4134 
L 1269 2991 
Q 1406 3038 1543 3061 
Q 1681 3084 1819 3084 
Q 2600 3084 3056 2656 
Q 3513 2228 3513 1497 
Q 3513 744 3044 326 
Q 2575 -91 1722 -91 
Q 1428 -91 1123 -41 
Q 819 9 494 109 
L 494 744 
Q 775 591 1075 516 
Q 1375 441 1709 441 
Q 2250 441 2565 725 
Q 2881 1009 2881 1497 
Q 2881 1984 2565 2268 
Q 2250 2553 1709 2553 
Q 1456 2553 1204 2497 
Q 953 2441 691 2322 
L 691 4666 
z
" transform="scale(0.015625)"/>
       </defs>
       <use xlink:href="#DejaVuSans-35"/>
       <use xlink:href="#DejaVuSans-30" x="63.623047"/>
       <use xlink:href="#DejaVuSans-30" x="127.246094"/>
      </g>
     </g>
    </g>
    <g id="ytick_7">
     <g id="line2d_15">
      <g>
       <use xlink:href="#m14443dd8c7" x="29.47" y="41.751229" style="stroke: #000000; stroke-width: 0.2"/>
      </g>
     </g>
     <g id="text_16">
      <!-- 600 -->
      <g transform="translate(7.2 44.790604) scale(0.08 -0.08)">
       <defs>
        <path id="DejaVuSans-36" d="M 2113 2584 
Q 1688 2584 1439 2293 
Q 1191 2003 1191 1497 
Q 1191 994 1439 701 
Q 1688 409 2113 409 
Q 2538 409 2786 701 
Q 3034 994 3034 1497 
Q 3034 2003 2786 2293 
Q 2538 2584 2113 2584 
z
M 3366 4563 
L 3366 3988 
Q 3128 4100 2886 4159 
Q 2644 4219 2406 4219 
Q 1781 4219 1451 3797 
Q 1122 3375 1075 2522 
Q 1259 2794 1537 2939 
Q 1816 3084 2150 3084 
Q 2853 3084 3261 2657 
Q 3669 2231 3669 1497 
Q 3669 778 3244 343 
Q 2819 -91 2113 -91 
Q 1303 -91 875 529 
Q 447 1150 447 2328 
Q 447 3434 972 4092 
Q 1497 4750 2381 4750 
Q 2619 4750 2861 4703 
Q 3103 4656 3366 4563 
z
" transform="scale(0.015625)"/>
       </defs>
       <use xlink:href="#DejaVuSans-36"/>
       <use xlink:href="#DejaVuSans-30" x="63.623047"/>
       <use xlink:href="#DejaVuSans-30" x="127.246094"/>
      </g>
     </g>
    </g>
    <g id="ytick_8">
     <g id="line2d_16">
      <g>
       <use xlink:href="#m14443dd8c7" x="29.47" y="13.523101" style="stroke: #000000; stroke-width: 0.2"/>
      </g>
     </g>
     <g id="text_17">
      <!-- 700 -->
      <g transform="translate(7.2 16.562476) scale(0.08 -0.08)">
       <defs>
        <path id="DejaVuSans-37" d="M 525 4666 
L 3525 4666 
L 3525 4397 
L 1831 0 
L 1172 0 
L 2766 4134 
L 525 4134 
L 525 4666 
z
" transform="scale(0.015625)"/>
       </defs>
       <use xlink:href="#DejaVuSans-37"/>
       <use xlink:href="#DejaVuSans-30" x="63.623047"/>
       <use xlink:href="#DejaVuSans-30" x="127.246094"/>
      </g>
     </g>
    </g>
   </g>
   <g id="patch_51">
    <path d="M 29.47 211.12 
L 29.47 7.2 
" style="fill: none; stroke: #000000; stroke-width: 0.2; stroke-linejoin: miter; stroke-linecap: square"/>
   </g>
   <g id="patch_52">
    <path d="M 422.01 211.12 
L 422.01 7.2 
" style="fill: none; stroke: #000000; stroke-width: 0.2; stroke-linejoin: miter; stroke-linecap: square"/>
   </g>
   <g id="patch_53">
    <path d="M 29.47 211.12 
L 422.01 211.12 
" style="fill: none; stroke: #000000; stroke-width: 0.2; stroke-linejoin: miter; stroke-linecap: square"/>
   </g>
   <g id="patch_54">
    <path d="M 29.47 7.2 
L 422.01 7.2 
" style="fill: none; stroke: #000000; stroke-width: 0.2; stroke-linejoin: miter; stroke-linecap: square"/>
   </g>
   <g id="legend_1">
    <g id="patch_55">
     <path d="M 329.91 95.7975 
L 416.41 95.7975 
Q 418.01 95.7975 418.01 94.1975 
L 418.01 12.8 
Q 418.01 11.2 416.41 11.2 
L 329.91 11.2 
Q 328.31 11.2 328.31 12.8 
L 328.31 94.1975 
Q 328.31 95.7975 329.91 95.7975 
z
" style="fill: #ffffff; opacity: 0.8; stroke: #cccccc; stroke-width: 0.2; stroke-linejoin: miter"/>
    </g>
    <g id="text_18">
     <!-- 건축물 용도 -->
     <g transform="translate(354.448125 20.47875) scale(0.08 -0.08)">
      <defs>
       <path id="KoPubDotumMedium-ac74" d="M 3078 4576 
Q 3155 4576 3184 4547 
Q 3213 4518 3213 4442 
Q 3162 3872 2954 3392 
Q 2746 2912 2406 2522 
Q 2067 2131 1609 1833 
Q 1152 1536 608 1344 
L 269 1722 
Q 1267 2054 1900 2681 
Q 2534 3309 2656 4134 
L 659 4134 
L 659 4576 
L 3078 4576 
z
M 4435 691 
L 4435 2714 
L 3245 2714 
L 3245 3155 
L 4435 3155 
L 4435 4838 
L 4941 4838 
L 4941 691 
L 4435 691 
z
M 1395 -717 
Q 1318 -717 1289 -688 
Q 1261 -659 1261 -582 
L 1261 1107 
L 1779 1107 
L 1779 -282 
L 5094 -282 
L 5094 -717 
L 1395 -717 
z
" transform="scale(0.015625)"/>
       <path id="KoPubDotumMedium-cd95" d="M 4768 3642 
L 3117 3642 
Q 3200 3424 3411 3264 
Q 3622 3104 3904 2989 
Q 4179 2874 4496 2803 
Q 4813 2733 5107 2701 
Q 5024 2605 4941 2505 
Q 4858 2406 4781 2304 
Q 4518 2349 4233 2419 
Q 3949 2490 3686 2605 
Q 3418 2714 3190 2874 
Q 2963 3034 2810 3251 
Q 2669 3046 2438 2892 
Q 2208 2739 1939 2624 
Q 1664 2509 1373 2429 
Q 1082 2349 819 2304 
Q 787 2336 745 2387 
Q 704 2438 659 2490 
Q 614 2541 566 2595 
Q 518 2650 480 2701 
Q 787 2739 1107 2809 
Q 1427 2880 1702 2995 
Q 1978 3104 2186 3264 
Q 2394 3424 2483 3642 
L 787 3642 
L 787 4045 
L 4768 4045 
L 4768 3642 
z
M 3814 4493 
L 1722 4493 
L 1722 4902 
L 3814 4902 
L 3814 4493 
z
M 179 1939 
L 5370 1939 
L 5370 1517 
L 3027 1517 
L 3027 851 
L 4544 851 
Q 4621 851 4649 822 
Q 4678 794 4678 717 
L 4678 -870 
L 4160 -870 
L 4160 429 
L 806 429 
L 806 851 
L 2496 851 
L 2496 1517 
L 179 1517 
L 179 1939 
z
" transform="scale(0.015625)"/>
       <path id="KoPubDotumMedium-bb3c" d="M 1357 3405 
L 4192 3405 
L 4192 4275 
L 1357 4275 
L 1357 3405 
z
M 998 4678 
L 4550 4678 
Q 4627 4678 4656 4649 
Q 4685 4621 4685 4544 
L 4685 3136 
Q 4685 3059 4656 3030 
Q 4627 3002 4550 3002 
L 998 3002 
Q 922 3002 893 3030 
Q 864 3059 864 3136 
L 864 4544 
Q 864 4621 893 4649 
Q 922 4678 998 4678 
z
M 5376 2093 
L 3027 2093 
L 3027 1491 
L 4544 1491 
Q 4621 1491 4649 1462 
Q 4678 1434 4678 1357 
L 4678 320 
Q 4678 243 4649 214 
Q 4621 186 4544 186 
L 1434 186 
L 1434 -397 
L 4806 -397 
L 4806 -794 
L 1011 -794 
Q 934 -794 905 -765 
Q 877 -736 877 -659 
L 877 435 
Q 877 512 905 541 
Q 934 570 1011 570 
L 4122 570 
L 4122 1088 
L 877 1088 
L 877 1491 
L 2509 1491 
L 2509 2093 
L 179 2093 
L 179 2502 
L 5376 2502 
L 5376 2093 
z
" transform="scale(0.015625)"/>
       <path id="KoPubDotumMedium-c6a9" d="M 749 109 
Q 749 570 1257 864 
Q 1766 1158 2784 1158 
Q 3802 1158 4304 857 
Q 4806 557 4806 102 
Q 4806 -346 4307 -646 
Q 3808 -947 2784 -947 
Q 1760 -947 1254 -646 
Q 749 -346 749 109 
z
M 1306 109 
Q 1306 -205 1693 -381 
Q 2080 -557 2784 -557 
Q 3456 -557 3849 -381 
Q 4243 -205 4243 102 
Q 4243 422 3852 601 
Q 3462 781 2784 781 
Q 2080 781 1693 601 
Q 1306 422 1306 109 
z
M 3475 2048 
L 3475 2765 
Q 3315 2726 3136 2713 
Q 2957 2701 2778 2701 
Q 2598 2701 2422 2713 
Q 2246 2726 2106 2758 
L 2106 2048 
L 3475 2048 
z
M 1331 3802 
Q 1331 3501 1728 3302 
Q 2125 3104 2778 3104 
Q 3411 3104 3820 3293 
Q 4230 3482 4230 3789 
Q 4230 4096 3840 4294 
Q 3450 4493 2778 4493 
Q 2086 4493 1708 4301 
Q 1331 4109 1331 3802 
z
M 179 2048 
L 1606 2048 
L 1606 2880 
Q 1197 3034 995 3274 
Q 794 3514 794 3795 
Q 794 4237 1293 4557 
Q 1792 4877 2778 4877 
Q 3789 4877 4281 4553 
Q 4774 4230 4774 3782 
Q 4774 3507 4572 3270 
Q 4371 3034 3968 2880 
L 3968 2048 
L 5376 2048 
L 5376 1613 
L 179 1613 
L 179 2048 
z
" transform="scale(0.015625)"/>
       <path id="KoPubDotumMedium-b3c4" d="M 1005 4531 
L 4742 4531 
L 4742 4096 
L 1376 4096 
L 1376 2202 
L 4800 2202 
L 4800 1773 
L 3034 1773 
L 3034 314 
L 5382 314 
L 5382 -122 
L 173 -122 
L 173 314 
L 2522 314 
L 2522 1773 
L 1005 1773 
Q 922 1773 896 1798 
Q 870 1824 870 1901 
L 870 4397 
Q 870 4474 899 4502 
Q 928 4531 1005 4531 
z
" transform="scale(0.015625)"/>
      </defs>
      <use xlink:href="#KoPubDotumMedium-ac74"/>
      <use xlink:href="#KoPubDotumMedium-cd95" x="87.199982"/>
      <use xlink:href="#KoPubDotumMedium-bb3c" x="174.399963"/>
      <use xlink:href="#DejaVuSans-20" x="261.599945"/>
      <use xlink:href="#KoPubDotumMedium-c6a9" x="293.387054"/>
      <use xlink:href="#KoPubDotumMedium-b3c4" x="380.587036"/>
     </g>
    </g>
    <g id="patch_56">
     <path d="M 331.51 32.22125 
L 347.51 32.22125 
L 347.51 26.62125 
L 331.51 26.62125 
z
" style="fill: #1f77b4"/>
    </g>
    <g id="text_19">
     <!-- 교육연구시설 -->
     <g transform="translate(353.91 32.22125) scale(0.08 -0.08)">
      <defs>
       <path id="KoPubDotumMedium-c5f0" d="M 1882 1741 
Q 1549 1741 1273 1859 
Q 998 1978 806 2189 
Q 608 2394 499 2669 
Q 390 2944 390 3258 
Q 390 3571 499 3846 
Q 608 4122 806 4333 
Q 998 4538 1273 4659 
Q 1549 4781 1882 4781 
Q 2266 4781 2579 4614 
Q 2893 4448 3091 4173 
L 4416 4173 
L 4416 4838 
L 4915 4838 
L 4915 672 
L 4416 672 
L 4416 2432 
L 3149 2432 
Q 2957 2118 2627 1929 
Q 2298 1741 1882 1741 
z
M 3309 3744 
Q 3341 3629 3360 3507 
Q 3379 3386 3379 3258 
Q 3379 3155 3363 3056 
Q 3347 2957 3328 2861 
L 4416 2861 
L 4416 3744 
L 3309 3744 
z
M 1882 2202 
Q 2342 2202 2598 2509 
Q 2854 2816 2854 3258 
Q 2854 3699 2598 4012 
Q 2342 4326 1882 4326 
Q 1421 4326 1165 4012 
Q 909 3699 909 3258 
Q 909 2816 1165 2509 
Q 1421 2202 1882 2202 
z
M 1370 -717 
Q 1293 -717 1264 -688 
Q 1235 -659 1235 -582 
L 1235 1133 
L 1754 1133 
L 1754 -282 
L 5069 -282 
L 5069 -717 
L 1370 -717 
z
" transform="scale(0.015625)"/>
       <path id="KoPubDotumMedium-ad6c" d="M 4627 4634 
Q 4704 4634 4733 4605 
Q 4762 4576 4762 4499 
Q 4742 4230 4710 3913 
Q 4678 3597 4640 3270 
Q 4602 2950 4554 2646 
Q 4506 2342 4461 2112 
L 5382 2112 
L 5382 1677 
L 2982 1677 
L 2982 -838 
L 2470 -838 
L 2470 1677 
L 173 1677 
L 173 2112 
L 3955 2112 
Q 4000 2342 4045 2608 
Q 4090 2874 4128 3149 
Q 4160 3424 4189 3693 
Q 4218 3962 4230 4198 
L 781 4198 
L 781 4634 
L 4627 4634 
z
" transform="scale(0.015625)"/>
       <path id="KoPubDotumMedium-c2dc" d="M 58 634 
Q 845 1114 1264 1875 
Q 1683 2637 1683 3558 
L 1683 4608 
L 2208 4608 
L 2208 3494 
Q 2208 2592 2582 1952 
Q 2957 1312 3763 806 
L 3392 442 
Q 2938 749 2541 1193 
Q 2144 1638 1933 2208 
Q 1760 1613 1350 1126 
Q 941 640 480 294 
L 58 634 
z
M 4928 4838 
L 4928 -832 
L 4416 -832 
L 4416 4838 
L 4928 4838 
z
" transform="scale(0.015625)"/>
       <path id="KoPubDotumMedium-c124" d="M 128 2298 
Q 448 2432 726 2617 
Q 1005 2803 1210 3040 
Q 1421 3270 1539 3555 
Q 1658 3840 1658 4186 
L 1658 4723 
L 2189 4723 
L 2189 4186 
Q 2189 3898 2301 3635 
Q 2413 3373 2618 3149 
Q 2816 2931 3085 2764 
Q 3354 2598 3667 2502 
L 3347 2125 
Q 2944 2298 2557 2579 
Q 2170 2861 1926 3302 
Q 1741 2861 1357 2518 
Q 973 2176 531 1965 
L 128 2298 
z
M 3168 3923 
L 4416 3923 
L 4416 4838 
L 4928 4838 
L 4928 1875 
L 4416 1875 
L 4416 3488 
L 3168 3488 
L 3168 3923 
z
M 1370 -781 
Q 1293 -781 1264 -752 
Q 1235 -723 1235 -646 
L 1235 474 
Q 1235 550 1264 579 
Q 1293 608 1370 608 
L 4378 608 
L 4378 1171 
L 1235 1171 
L 1235 1587 
L 4787 1587 
Q 4864 1587 4893 1558 
Q 4922 1530 4922 1453 
L 4922 352 
Q 4922 275 4893 246 
Q 4864 218 4787 218 
L 1779 218 
L 1779 -371 
L 5050 -371 
L 5050 -781 
L 1370 -781 
z
" transform="scale(0.015625)"/>
      </defs>
      <use xlink:href="#KoPubDotumMedium-ad50"/>
      <use xlink:href="#KoPubDotumMedium-c721" x="87.199982"/>
      <use xlink:href="#KoPubDotumMedium-c5f0" x="174.399963"/>
      <use xlink:href="#KoPubDotumMedium-ad6c" x="261.599945"/>
      <use xlink:href="#KoPubDotumMedium-c2dc" x="348.799927"/>
      <use xlink:href="#KoPubDotumMedium-c124" x="435.999908"/>
     </g>
    </g>
    <g id="patch_57">
     <path d="M 331.51 43.96375 
L 347.51 43.96375 
L 347.51 38.36375 
L 331.51 38.36375 
z
" style="fill: #ff7f0e"/>
    </g>
    <g id="text_20">
     <!-- 업무시설 -->
     <g transform="translate(353.91 43.96375) scale(0.08 -0.08)">
      <defs>
       <path id="KoPubDotumMedium-bb34" d="M 1370 2880 
L 4179 2880 
L 4179 4211 
L 1370 4211 
L 1370 2880 
z
M 1005 4640 
L 4544 4640 
Q 4621 4640 4649 4611 
Q 4678 4582 4678 4506 
L 4678 2579 
Q 4678 2502 4649 2473 
Q 4621 2445 4544 2445 
L 1005 2445 
Q 928 2445 899 2473 
Q 870 2502 870 2579 
L 870 4506 
Q 870 4582 899 4611 
Q 928 4640 1005 4640 
z
M 2534 -845 
L 2534 1184 
L 186 1184 
L 186 1619 
L 5376 1619 
L 5376 1184 
L 3059 1184 
L 3059 -845 
L 2534 -845 
z
" transform="scale(0.015625)"/>
      </defs>
      <use xlink:href="#KoPubDotumMedium-c5c5"/>
      <use xlink:href="#KoPubDotumMedium-bb34" x="87.199982"/>
      <use xlink:href="#KoPubDotumMedium-c2dc" x="174.399963"/>
      <use xlink:href="#KoPubDotumMedium-c124" x="261.599945"/>
     </g>
    </g>
    <g id="patch_58">
     <path d="M 331.51 55.70625 
L 347.51 55.70625 
L 347.51 50.10625 
L 331.51 50.10625 
z
" style="fill: #2ca02c"/>
    </g>
    <g id="text_21">
     <!-- 공동주택 -->
     <g transform="translate(353.91 55.70625) scale(0.08 -0.08)">
      <defs>
       <path id="KoPubDotumMedium-acf5" d="M 4646 4672 
Q 4723 4672 4752 4643 
Q 4781 4614 4781 4538 
Q 4762 3981 4698 3542 
Q 4634 3104 4563 2726 
L 4077 2726 
Q 4154 3110 4198 3468 
Q 4243 3827 4262 4237 
L 781 4237 
L 781 4672 
L 4646 4672 
z
M 5376 1856 
L 179 1856 
L 179 2298 
L 2253 2298 
L 2253 3494 
L 2765 3494 
L 2765 2298 
L 5376 2298 
L 5376 1856 
z
M 730 198 
Q 730 685 1261 1011 
Q 1792 1338 2778 1338 
Q 3757 1338 4288 1011 
Q 4819 685 4819 198 
Q 4819 -294 4291 -617 
Q 3763 -941 2778 -941 
Q 1792 -941 1261 -617 
Q 730 -294 730 198 
z
M 2778 -538 
Q 3430 -538 3849 -349 
Q 4269 -160 4269 205 
Q 4269 550 3849 739 
Q 3430 928 2778 928 
Q 2106 928 1699 739 
Q 1293 550 1293 205 
Q 1293 -160 1699 -349 
Q 2106 -538 2778 -538 
z
" transform="scale(0.015625)"/>
       <path id="KoPubDotumMedium-c8fc" d="M 4787 2208 
Q 4538 2266 4246 2374 
Q 3955 2483 3680 2643 
Q 3405 2803 3165 3024 
Q 2925 3245 2784 3526 
Q 2630 3258 2406 3046 
Q 2182 2835 1914 2675 
Q 1651 2509 1356 2397 
Q 1062 2285 774 2208 
L 410 2592 
Q 813 2675 1181 2822 
Q 1549 2970 1830 3168 
Q 2112 3373 2285 3629 
Q 2458 3885 2490 4198 
L 819 4198 
L 819 4634 
L 4736 4634 
L 4736 4192 
L 3059 4192 
Q 3085 3853 3286 3587 
Q 3488 3322 3782 3123 
Q 4083 2918 4435 2787 
Q 4787 2656 5120 2592 
L 4787 2208 
z
M 5376 1210 
L 3046 1210 
L 3046 -845 
L 2528 -845 
L 2528 1210 
L 186 1210 
L 186 1645 
L 5376 1645 
L 5376 1210 
z
" transform="scale(0.015625)"/>
       <path id="KoPubDotumMedium-d0dd" d="M 710 4602 
L 2662 4602 
L 2662 4173 
L 1069 4173 
L 1069 3379 
L 2605 3379 
L 2605 2963 
L 1069 2963 
L 1069 2106 
L 1363 2106 
Q 1504 2106 1728 2112 
Q 1952 2118 2195 2138 
Q 2432 2150 2646 2172 
Q 2861 2195 2989 2221 
L 2989 1792 
Q 2912 1773 2710 1750 
Q 2509 1728 2259 1709 
Q 2003 1690 1724 1677 
Q 1446 1664 1222 1664 
L 710 1664 
Q 634 1664 605 1693 
Q 576 1722 576 1798 
L 576 4467 
Q 576 4544 605 4573 
Q 634 4602 710 4602 
z
M 3750 4742 
L 3750 3424 
L 4506 3424 
L 4506 4838 
L 4992 4838 
L 4992 1389 
L 4506 1389 
L 4506 2995 
L 3750 2995 
L 3750 1389 
L 3264 1389 
L 3264 4742 
L 3750 4742 
z
M 4851 1075 
Q 4928 1075 4957 1046 
Q 4986 1018 4986 941 
L 4986 -870 
L 4486 -870 
L 4486 640 
L 1158 640 
L 1158 1075 
L 4851 1075 
z
" transform="scale(0.015625)"/>
      </defs>
      <use xlink:href="#KoPubDotumMedium-acf5"/>
      <use xlink:href="#KoPubDotumMedium-b3d9" x="87.199982"/>
      <use xlink:href="#KoPubDotumMedium-c8fc" x="174.399963"/>
      <use xlink:href="#KoPubDotumMedium-d0dd" x="261.599945"/>
     </g>
    </g>
    <g id="patch_59">
     <path d="M 331.51 67.44875 
L 347.51 67.44875 
L 347.51 61.84875 
L 331.51 61.84875 
z
" style="fill: #d62728"/>
    </g>
    <g id="text_22">
     <!-- 제1종근린생활시설 -->
     <g transform="translate(353.91 67.44875) scale(0.08 -0.08)">
      <defs>
       <path id="KoPubDotumMedium-c81c" d="M 109 589 
Q 813 1062 1152 1792 
Q 1491 2522 1491 3539 
L 1491 4032 
L 544 4032 
L 544 4461 
L 2931 4461 
L 2931 4032 
L 2010 4032 
L 2010 3552 
Q 2010 2586 2272 1910 
Q 2534 1235 3206 832 
L 2829 486 
Q 2522 691 2205 1084 
Q 1888 1478 1734 1990 
Q 1664 1741 1542 1491 
Q 1421 1242 1267 1018 
Q 1107 794 921 598 
Q 736 403 550 269 
L 109 589 
z
M 4653 -832 
L 4653 4838 
L 5133 4838 
L 5133 -832 
L 4653 -832 
z
M 3526 -563 
L 3526 2547 
L 2586 2547 
L 2586 3027 
L 3526 3027 
L 3526 4742 
L 4026 4742 
L 4026 -563 
L 3526 -563 
z
" transform="scale(0.015625)"/>
       <path id="KoPubDotumMedium-adfc" d="M 4646 4672 
Q 4723 4672 4752 4643 
Q 4781 4614 4781 4538 
Q 4762 4256 4730 3952 
Q 4698 3648 4653 3347 
Q 4614 3040 4563 2758 
Q 4512 2477 4467 2253 
L 5376 2253 
L 5376 1811 
L 179 1811 
L 179 2253 
L 3981 2253 
Q 4019 2470 4064 2729 
Q 4109 2989 4147 3251 
Q 4186 3514 4218 3770 
Q 4250 4026 4262 4237 
L 787 4237 
L 787 4672 
L 4646 4672 
z
M 1024 -717 
Q 947 -717 918 -688 
Q 890 -659 890 -582 
L 890 1203 
L 1382 1203 
L 1382 -282 
L 4883 -282 
L 4883 -717 
L 1024 -717 
z
" transform="scale(0.015625)"/>
       <path id="KoPubDotumMedium-b9b0" d="M 730 1491 
Q 653 1491 624 1520 
Q 595 1549 595 1626 
L 595 3155 
Q 595 3232 624 3261 
Q 653 3290 730 3290 
L 2688 3290 
L 2688 4198 
L 595 4198 
L 595 4627 
L 3046 4627 
Q 3123 4627 3152 4598 
Q 3181 4570 3181 4493 
L 3181 3008 
Q 3181 2931 3152 2902 
Q 3123 2874 3046 2874 
L 1088 2874 
L 1088 1933 
L 1715 1933 
Q 2061 1933 2409 1952 
Q 2758 1971 3078 1997 
Q 3392 2029 3651 2064 
Q 3910 2099 4083 2138 
L 4083 1709 
Q 3898 1670 3616 1632 
Q 3334 1594 3002 1562 
Q 2662 1530 2284 1510 
Q 1907 1491 1536 1491 
L 730 1491 
z
M 4384 653 
L 4384 4838 
L 4883 4838 
L 4883 653 
L 4384 653 
z
M 1344 -717 
Q 1267 -717 1238 -688 
Q 1210 -659 1210 -582 
L 1210 947 
L 1715 947 
L 1715 -282 
L 5024 -282 
L 5024 -717 
L 1344 -717 
z
" transform="scale(0.015625)"/>
      </defs>
      <use xlink:href="#KoPubDotumMedium-c81c"/>
      <use xlink:href="#DejaVuSans-31" x="87.199982"/>
      <use xlink:href="#KoPubDotumMedium-c885" x="150.823029"/>
      <use xlink:href="#KoPubDotumMedium-adfc" x="238.02301"/>
      <use xlink:href="#KoPubDotumMedium-b9b0" x="325.222992"/>
      <use xlink:href="#KoPubDotumMedium-c0dd" x="412.422974"/>
      <use xlink:href="#KoPubDotumMedium-d65c" x="499.622955"/>
      <use xlink:href="#KoPubDotumMedium-c2dc" x="586.822937"/>
      <use xlink:href="#KoPubDotumMedium-c124" x="674.022919"/>
     </g>
    </g>
    <g id="patch_60">
     <path d="M 331.51 79.19125 
L 347.51 79.19125 
L 347.51 73.59125 
L 331.51 73.59125 
z
" style="fill: #9467bd"/>
    </g>
    <g id="text_23">
     <!-- 제2종근린생활시설 -->
     <g transform="translate(353.91 79.19125) scale(0.08 -0.08)">
      <use xlink:href="#KoPubDotumMedium-c81c"/>
      <use xlink:href="#DejaVuSans-32" x="87.199982"/>
      <use xlink:href="#KoPubDotumMedium-c885" x="150.823029"/>
      <use xlink:href="#KoPubDotumMedium-adfc" x="238.02301"/>
      <use xlink:href="#KoPubDotumMedium-b9b0" x="325.222992"/>
      <use xlink:href="#KoPubDotumMedium-c0dd" x="412.422974"/>
      <use xlink:href="#KoPubDotumMedium-d65c" x="499.622955"/>
      <use xlink:href="#KoPubDotumMedium-c2dc" x="586.822937"/>
      <use xlink:href="#KoPubDotumMedium-c124" x="674.022919"/>
     </g>
    </g>
    <g id="patch_61">
     <path d="M 331.51 90.93375 
L 347.51 90.93375 
L 347.51 85.33375 
L 331.51 85.33375 
z
" style="fill: #8c564b"/>
    </g>
    <g id="text_24">
     <!-- 기타 -->
     <g transform="translate(353.91 90.93375) scale(0.08 -0.08)">
      <defs>
       <path id="KoPubDotumMedium-ae30" d="M 3091 4512 
Q 3168 4512 3197 4483 
Q 3226 4454 3226 4378 
Q 3194 3712 3005 3117 
Q 2816 2522 2496 2016 
Q 2176 1504 1741 1085 
Q 1306 666 781 358 
L 371 698 
Q 1363 1216 1968 2077 
Q 2573 2938 2662 4070 
L 704 4070 
L 704 4512 
L 3091 4512 
z
M 4416 -832 
L 4416 4838 
L 4928 4838 
L 4928 -832 
L 4416 -832 
z
" transform="scale(0.015625)"/>
       <path id="KoPubDotumMedium-d0c0" d="M 698 4563 
L 3200 4576 
L 3200 4128 
L 1056 4128 
L 1056 2822 
L 3110 2822 
L 3110 2387 
L 1056 2387 
L 1056 1018 
L 1664 1018 
Q 1920 1018 2224 1034 
Q 2528 1050 2822 1075 
Q 3123 1101 3392 1133 
Q 3661 1165 3859 1203 
L 3859 781 
Q 3597 723 3264 681 
Q 2931 640 2573 614 
Q 2214 589 1856 576 
Q 1498 563 1184 563 
L 698 563 
Q 621 563 592 592 
Q 563 621 563 698 
L 563 4429 
Q 563 4506 592 4534 
Q 621 4563 698 4563 
z
M 4134 -845 
L 4134 4838 
L 4646 4838 
L 4646 2829 
L 5491 2829 
L 5491 2362 
L 4646 2362 
L 4646 -845 
L 4134 -845 
z
" transform="scale(0.015625)"/>
      </defs>
      <use xlink:href="#KoPubDotumMedium-ae30"/>
      <use xlink:href="#KoPubDotumMedium-d0c0" x="87.199982"/>
     </g>
    </g>
   </g>
  </g>
 </g>
 <defs>
  <clipPath id="pb2038dc96d">
   <rect x="29.47" y="7.2" width="392.54" height="203.92"/>
  </clipPath>
 </defs>
</svg>
