<?xml version="1.0" encoding="utf-8" standalone="no"?>
<!DOCTYPE svg PUBLIC "-//W3C//DTD SVG 1.1//EN"
  "http://www.w3.org/Graphics/SVG/1.1/DTD/svg11.dtd">
<svg xmlns:xlink="http://www.w3.org/1999/xlink" width="428.30375pt" height="283.325pt" viewBox="0 0 428.30375 283.325" xmlns="http://www.w3.org/2000/svg" version="1.1">
 <metadata>
  <rdf:RDF xmlns:dc="http://purl.org/dc/elements/1.1/" xmlns:cc="http://creativecommons.org/ns#" xmlns:rdf="http://www.w3.org/1999/02/22-rdf-syntax-ns#">
   <cc:Work>
    <dc:type rdf:resource="http://purl.org/dc/dcmitype/StillImage"/>
    <dc:date>2022-11-01T17:36:45.976393</dc:date>
    <dc:format>image/svg+xml</dc:format>
    <dc:creator>
     <cc:Agent>
      <dc:title>Matplotlib v3.6.1, https://matplotlib.org/</dc:title>
     </cc:Agent>
    </dc:creator>
   </cc:Work>
  </rdf:RDF>
 </metadata>
 <defs>
  <style type="text/css">*{stroke-linejoin: round; stroke-linecap: butt}</style>
 </defs>
 <g id="figure_1">
  <g id="patch_1">
   <path d="M 0 283.325 
L 428.30375 283.325 
L 428.30375 0 
L 0 0 
z
" style="fill: #ffffff"/>
  </g>
  <g id="axes_1">
   <g id="patch_2">
    <path d="M 60.82375 249.64 
L 421.10375 249.64 
L 421.10375 7.2 
L 60.82375 7.2 
z
" style="fill: #ffffff"/>
   </g>
   <g id="PathCollection_1">
    <defs>
     <path id="m4b21296ea2" d="M 0 4.242641 
L 2.545584 0 
L 0 -4.242641 
L -2.545584 0 
z
" style="stroke: #3d3d3d; stroke-width: 0.2"/>
    </defs>
    <g clip-path="url(#pffdae9413f)">
     <use xlink:href="#m4b21296ea2" x="60.82375" y="37.505" style="fill: #3d3d3d; stroke: #3d3d3d; stroke-width: 0.2"/>
     <use xlink:href="#m4b21296ea2" x="89.64615" y="37.505" style="fill: #3d3d3d; stroke: #3d3d3d; stroke-width: 0.2"/>
     <use xlink:href="#m4b21296ea2" x="89.64615" y="37.505" style="fill: #3d3d3d; stroke: #3d3d3d; stroke-width: 0.2"/>
     <use xlink:href="#m4b21296ea2" x="68.02935" y="37.505" style="fill: #3d3d3d; stroke: #3d3d3d; stroke-width: 0.2"/>
     <use xlink:href="#m4b21296ea2" x="75.23495" y="37.505" style="fill: #3d3d3d; stroke: #3d3d3d; stroke-width: 0.2"/>
     <use xlink:href="#m4b21296ea2" x="89.64615" y="37.505" style="fill: #3d3d3d; stroke: #3d3d3d; stroke-width: 0.2"/>
     <use xlink:href="#m4b21296ea2" x="406.69255" y="37.505" style="fill: #3d3d3d; stroke: #3d3d3d; stroke-width: 0.2"/>
     <use xlink:href="#m4b21296ea2" x="406.69255" y="37.505" style="fill: #3d3d3d; stroke: #3d3d3d; stroke-width: 0.2"/>
     <use xlink:href="#m4b21296ea2" x="406.69255" y="37.505" style="fill: #3d3d3d; stroke: #3d3d3d; stroke-width: 0.2"/>
     <use xlink:href="#m4b21296ea2" x="406.69255" y="37.505" style="fill: #3d3d3d; stroke: #3d3d3d; stroke-width: 0.2"/>
     <use xlink:href="#m4b21296ea2" x="413.89815" y="37.505" style="fill: #3d3d3d; stroke: #3d3d3d; stroke-width: 0.2"/>
     <use xlink:href="#m4b21296ea2" x="406.69255" y="37.505" style="fill: #3d3d3d; stroke: #3d3d3d; stroke-width: 0.2"/>
    </g>
   </g>
   <g id="PatchCollection_1">
    <path d="M 92.066781 36.747375 
L 404.271919 36.747375 
L 404.271919 38.262625 
L 92.066781 38.262625 
z
" clip-path="url(#pffdae9413f)" style="fill: #e0eaf1; stroke: #3d3d3d; stroke-width: 0.3"/>
    <path d="M 104.05735 35.98975 
L 392.28135 35.98975 
L 392.28135 39.02025 
L 104.05735 39.02025 
z
" clip-path="url(#pffdae9413f)" style="fill: #bed3e1; stroke: #3d3d3d; stroke-width: 0.3"/>
    <path d="M 104.05735 34.4745 
L 385.07575 34.4745 
L 385.07575 40.5355 
L 104.05735 40.5355 
z
" clip-path="url(#pffdae9413f)" style="fill: #9bbbd1; stroke: #3d3d3d; stroke-width: 0.3"/>
    <path d="M 118.46855 31.444 
L 363.45895 31.444 
L 363.45895 43.566 
L 118.46855 43.566 
z
" clip-path="url(#pffdae9413f)" style="fill: #78a3c1; stroke: #3d3d3d; stroke-width: 0.3"/>
    <path d="M 154.49655 25.383 
L 349.04775 25.383 
L 349.04775 49.627 
L 154.49655 49.627 
z
" clip-path="url(#pffdae9413f)" style="fill: #558cb1; stroke: #3d3d3d; stroke-width: 0.3"/>
    <path d="M 183.31895 13.261 
L 313.01975 13.261 
L 313.01975 61.749 
L 183.31895 61.749 
z
" clip-path="url(#pffdae9413f)" style="fill: #3274a1; stroke: #3d3d3d; stroke-width: 0.3"/>
   </g>
   <g id="PathCollection_2">
    <g clip-path="url(#pffdae9413f)">
     <use xlink:href="#m4b21296ea2" x="392.28135" y="98.115" style="fill: #3d3d3d; stroke: #3d3d3d; stroke-width: 0.2"/>
     <use xlink:href="#m4b21296ea2" x="392.28135" y="98.115" style="fill: #3d3d3d; stroke: #3d3d3d; stroke-width: 0.2"/>
    </g>
   </g>
   <g id="PatchCollection_2">
    <path d="M 104.05735 92.054 
L 377.87015 92.054 
L 377.87015 104.176 
L 104.05735 104.176 
z
" clip-path="url(#pffdae9413f)" style="fill: #fbece0; stroke: #3d3d3d; stroke-width: 0.3"/>
    <path d="M 113.96505 85.993 
L 360.75685 85.993 
L 360.75685 110.237 
L 113.96505 110.237 
z
" clip-path="url(#pffdae9413f)" style="fill: #eeb786; stroke: #3d3d3d; stroke-width: 0.3"/>
    <path d="M 176.11335 73.871 
L 313.01975 73.871 
L 313.01975 122.359 
L 176.11335 122.359 
z
" clip-path="url(#pffdae9413f)" style="fill: #e1812c; stroke: #3d3d3d; stroke-width: 0.3"/>
   </g>
   <g id="PathCollection_3">
    <g clip-path="url(#pffdae9413f)">
     <use xlink:href="#m4b21296ea2" x="89.64615" y="158.725" style="fill: #3d3d3d; stroke: #3d3d3d; stroke-width: 0.2"/>
     <use xlink:href="#m4b21296ea2" x="68.02935" y="158.725" style="fill: #3d3d3d; stroke: #3d3d3d; stroke-width: 0.2"/>
     <use xlink:href="#m4b21296ea2" x="96.85175" y="158.725" style="fill: #3d3d3d; stroke: #3d3d3d; stroke-width: 0.2"/>
     <use xlink:href="#m4b21296ea2" x="406.69255" y="158.725" style="fill: #3d3d3d; stroke: #3d3d3d; stroke-width: 0.2"/>
     <use xlink:href="#m4b21296ea2" x="406.69255" y="158.725" style="fill: #3d3d3d; stroke: #3d3d3d; stroke-width: 0.2"/>
     <use xlink:href="#m4b21296ea2" x="406.69255" y="158.725" style="fill: #3d3d3d; stroke: #3d3d3d; stroke-width: 0.2"/>
     <use xlink:href="#m4b21296ea2" x="406.69255" y="158.725" style="fill: #3d3d3d; stroke: #3d3d3d; stroke-width: 0.2"/>
     <use xlink:href="#m4b21296ea2" x="406.69255" y="158.725" style="fill: #3d3d3d; stroke: #3d3d3d; stroke-width: 0.2"/>
    </g>
   </g>
   <g id="PatchCollection_3">
    <path d="M 104.05735 155.6945 
L 392.28135 155.6945 
L 392.28135 161.7555 
L 104.05735 161.7555 
z
" clip-path="url(#pffdae9413f)" style="fill: #e2efe2; stroke: #3d3d3d; stroke-width: 0.3"/>
    <path d="M 118.46855 152.664 
L 377.87015 152.664 
L 377.87015 164.786 
L 118.46855 164.786 
z
" clip-path="url(#pffdae9413f)" style="fill: #aad0aa; stroke: #3d3d3d; stroke-width: 0.3"/>
    <path d="M 146.39025 146.603 
L 356.25335 146.603 
L 356.25335 170.847 
L 146.39025 170.847 
z
" clip-path="url(#pffdae9413f)" style="fill: #72b172; stroke: #3d3d3d; stroke-width: 0.3"/>
    <path d="M 183.31895 134.481 
L 305.81415 134.481 
L 305.81415 182.969 
L 183.31895 182.969 
z
" clip-path="url(#pffdae9413f)" style="fill: #3a923a; stroke: #3d3d3d; stroke-width: 0.3"/>
   </g>
   <g id="PatchCollection_4">
    <path d="M 104.05735 213.274 
L 406.69255 213.274 
L 406.69255 225.396 
L 104.05735 225.396 
z
" clip-path="url(#pffdae9413f)" style="fill: #f6e2e2; stroke: #3d3d3d; stroke-width: 0.3"/>
    <path d="M 111.26295 207.213 
L 377.87015 207.213 
L 377.87015 231.457 
L 111.26295 231.457 
z
" clip-path="url(#pffdae9413f)" style="fill: #db9090; stroke: #3d3d3d; stroke-width: 0.3"/>
    <path d="M 111.26295 195.091 
L 313.01975 195.091 
L 313.01975 243.579 
L 111.26295 243.579 
z
" clip-path="url(#pffdae9413f)" style="fill: #c03d3e; stroke: #3d3d3d; stroke-width: 0.3"/>
   </g>
   <g id="matplotlib.axis_1">
    <g id="xtick_1">
     <g id="line2d_1">
      <defs>
       <path id="m1edefc0f2a" d="M 0 0 
L 0 3.5 
" style="stroke: #000000; stroke-width: 0.2"/>
      </defs>
      <g>
       <use xlink:href="#m1edefc0f2a" x="118.46855" y="249.64" style="stroke: #000000; stroke-width: 0.2"/>
      </g>
     </g>
     <g id="text_1">
      <!-- 1980 -->
      <g transform="translate(108.28855 262.71875) scale(0.08 -0.08)">
       <defs>
        <path id="DejaVuSans-31" d="M 794 531 
L 1825 531 
L 1825 4091 
L 703 3866 
L 703 4441 
L 1819 4666 
L 2450 4666 
L 2450 531 
L 3481 531 
L 3481 0 
L 794 0 
L 794 531 
z
" transform="scale(0.015625)"/>
        <path id="DejaVuSans-39" d="M 703 97 
L 703 672 
Q 941 559 1184 500 
Q 1428 441 1663 441 
Q 2288 441 2617 861 
Q 2947 1281 2994 2138 
Q 2813 1869 2534 1725 
Q 2256 1581 1919 1581 
Q 1219 1581 811 2004 
Q 403 2428 403 3163 
Q 403 3881 828 4315 
Q 1253 4750 1959 4750 
Q 2769 4750 3195 4129 
Q 3622 3509 3622 2328 
Q 3622 1225 3098 567 
Q 2575 -91 1691 -91 
Q 1453 -91 1209 -44 
Q 966 3 703 97 
z
M 1959 2075 
Q 2384 2075 2632 2365 
Q 2881 2656 2881 3163 
Q 2881 3666 2632 3958 
Q 2384 4250 1959 4250 
Q 1534 4250 1286 3958 
Q 1038 3666 1038 3163 
Q 1038 2656 1286 2365 
Q 1534 2075 1959 2075 
z
" transform="scale(0.015625)"/>
        <path id="DejaVuSans-38" d="M 2034 2216 
Q 1584 2216 1326 1975 
Q 1069 1734 1069 1313 
Q 1069 891 1326 650 
Q 1584 409 2034 409 
Q 2484 409 2743 651 
Q 3003 894 3003 1313 
Q 3003 1734 2745 1975 
Q 2488 2216 2034 2216 
z
M 1403 2484 
Q 997 2584 770 2862 
Q 544 3141 544 3541 
Q 544 4100 942 4425 
Q 1341 4750 2034 4750 
Q 2731 4750 3128 4425 
Q 3525 4100 3525 3541 
Q 3525 3141 3298 2862 
Q 3072 2584 2669 2484 
Q 3125 2378 3379 2068 
Q 3634 1759 3634 1313 
Q 3634 634 3220 271 
Q 2806 -91 2034 -91 
Q 1263 -91 848 271 
Q 434 634 434 1313 
Q 434 1759 690 2068 
Q 947 2378 1403 2484 
z
M 1172 3481 
Q 1172 3119 1398 2916 
Q 1625 2713 2034 2713 
Q 2441 2713 2670 2916 
Q 2900 3119 2900 3481 
Q 2900 3844 2670 4047 
Q 2441 4250 2034 4250 
Q 1625 4250 1398 4047 
Q 1172 3844 1172 3481 
z
" transform="scale(0.015625)"/>
        <path id="DejaVuSans-30" d="M 2034 4250 
Q 1547 4250 1301 3770 
Q 1056 3291 1056 2328 
Q 1056 1369 1301 889 
Q 1547 409 2034 409 
Q 2525 409 2770 889 
Q 3016 1369 3016 2328 
Q 3016 3291 2770 3770 
Q 2525 4250 2034 4250 
z
M 2034 4750 
Q 2819 4750 3233 4129 
Q 3647 3509 3647 2328 
Q 3647 1150 3233 529 
Q 2819 -91 2034 -91 
Q 1250 -91 836 529 
Q 422 1150 422 2328 
Q 422 3509 836 4129 
Q 1250 4750 2034 4750 
z
" transform="scale(0.015625)"/>
       </defs>
       <use xlink:href="#DejaVuSans-31"/>
       <use xlink:href="#DejaVuSans-39" x="63.623047"/>
       <use xlink:href="#DejaVuSans-38" x="127.246094"/>
       <use xlink:href="#DejaVuSans-30" x="190.869141"/>
      </g>
     </g>
    </g>
    <g id="xtick_2">
     <g id="line2d_2">
      <g>
       <use xlink:href="#m1edefc0f2a" x="190.52455" y="249.64" style="stroke: #000000; stroke-width: 0.2"/>
      </g>
     </g>
     <g id="text_2">
      <!-- 1990 -->
      <g transform="translate(180.34455 262.71875) scale(0.08 -0.08)">
       <use xlink:href="#DejaVuSans-31"/>
       <use xlink:href="#DejaVuSans-39" x="63.623047"/>
       <use xlink:href="#DejaVuSans-39" x="127.246094"/>
       <use xlink:href="#DejaVuSans-30" x="190.869141"/>
      </g>
     </g>
    </g>
    <g id="xtick_3">
     <g id="line2d_3">
      <g>
       <use xlink:href="#m1edefc0f2a" x="262.58055" y="249.64" style="stroke: #000000; stroke-width: 0.2"/>
      </g>
     </g>
     <g id="text_3">
      <!-- 2000 -->
      <g transform="translate(252.40055 262.71875) scale(0.08 -0.08)">
       <defs>
        <path id="DejaVuSans-32" d="M 1228 531 
L 3431 531 
L 3431 0 
L 469 0 
L 469 531 
Q 828 903 1448 1529 
Q 2069 2156 2228 2338 
Q 2531 2678 2651 2914 
Q 2772 3150 2772 3378 
Q 2772 3750 2511 3984 
Q 2250 4219 1831 4219 
Q 1534 4219 1204 4116 
Q 875 4013 500 3803 
L 500 4441 
Q 881 4594 1212 4672 
Q 1544 4750 1819 4750 
Q 2544 4750 2975 4387 
Q 3406 4025 3406 3419 
Q 3406 3131 3298 2873 
Q 3191 2616 2906 2266 
Q 2828 2175 2409 1742 
Q 1991 1309 1228 531 
z
" transform="scale(0.015625)"/>
       </defs>
       <use xlink:href="#DejaVuSans-32"/>
       <use xlink:href="#DejaVuSans-30" x="63.623047"/>
       <use xlink:href="#DejaVuSans-30" x="127.246094"/>
       <use xlink:href="#DejaVuSans-30" x="190.869141"/>
      </g>
     </g>
    </g>
    <g id="xtick_4">
     <g id="line2d_4">
      <g>
       <use xlink:href="#m1edefc0f2a" x="334.63655" y="249.64" style="stroke: #000000; stroke-width: 0.2"/>
      </g>
     </g>
     <g id="text_4">
      <!-- 2010 -->
      <g transform="translate(324.45655 262.71875) scale(0.08 -0.08)">
       <use xlink:href="#DejaVuSans-32"/>
       <use xlink:href="#DejaVuSans-30" x="63.623047"/>
       <use xlink:href="#DejaVuSans-31" x="127.246094"/>
       <use xlink:href="#DejaVuSans-30" x="190.869141"/>
      </g>
     </g>
    </g>
    <g id="xtick_5">
     <g id="line2d_5">
      <g>
       <use xlink:href="#m1edefc0f2a" x="406.69255" y="249.64" style="stroke: #000000; stroke-width: 0.2"/>
      </g>
     </g>
     <g id="text_5">
      <!-- 2020 -->
      <g transform="translate(396.51255 262.71875) scale(0.08 -0.08)">
       <use xlink:href="#DejaVuSans-32"/>
       <use xlink:href="#DejaVuSans-30" x="63.623047"/>
       <use xlink:href="#DejaVuSans-32" x="127.246094"/>
       <use xlink:href="#DejaVuSans-30" x="190.869141"/>
      </g>
     </g>
    </g>
    <g id="text_6">
     <!-- 사용승인 연도 -->
     <g transform="translate(218.76375 274.46125) scale(0.08 -0.08)">
      <defs>
       <path id="KoPubDotumMedium-c0ac" d="M 2138 3469 
Q 2138 3027 2227 2646 
Q 2317 2266 2502 1952 
Q 2714 1594 3011 1302 
Q 3309 1011 3693 787 
Q 3642 749 3587 697 
Q 3533 646 3482 602 
Q 3430 550 3385 502 
Q 3341 454 3309 422 
Q 3110 557 2908 733 
Q 2707 909 2522 1120 
Q 2323 1350 2156 1619 
Q 1990 1888 1875 2202 
Q 1798 1920 1644 1645 
Q 1491 1370 1299 1120 
Q 1101 858 877 640 
Q 653 422 442 282 
Q 365 352 237 451 
Q 109 550 0 621 
Q 384 858 691 1174 
Q 998 1491 1210 1869 
Q 1408 2234 1510 2659 
Q 1613 3085 1613 3558 
L 1613 4621 
L 2138 4621 
L 2138 3469 
z
M 4672 -838 
L 4166 -838 
L 4166 4838 
L 4672 4838 
L 4672 2662 
L 5510 2662 
L 5510 2208 
L 4672 2208 
L 4672 -838 
z
" transform="scale(0.015625)"/>
       <path id="KoPubDotumMedium-c6a9" d="M 749 109 
Q 749 570 1257 864 
Q 1766 1158 2784 1158 
Q 3802 1158 4304 857 
Q 4806 557 4806 102 
Q 4806 -346 4307 -646 
Q 3808 -947 2784 -947 
Q 1760 -947 1254 -646 
Q 749 -346 749 109 
z
M 1306 109 
Q 1306 -205 1693 -381 
Q 2080 -557 2784 -557 
Q 3456 -557 3849 -381 
Q 4243 -205 4243 102 
Q 4243 422 3852 601 
Q 3462 781 2784 781 
Q 2080 781 1693 601 
Q 1306 422 1306 109 
z
M 3475 2048 
L 3475 2765 
Q 3315 2726 3136 2713 
Q 2957 2701 2778 2701 
Q 2598 2701 2422 2713 
Q 2246 2726 2106 2758 
L 2106 2048 
L 3475 2048 
z
M 1331 3802 
Q 1331 3501 1728 3302 
Q 2125 3104 2778 3104 
Q 3411 3104 3820 3293 
Q 4230 3482 4230 3789 
Q 4230 4096 3840 4294 
Q 3450 4493 2778 4493 
Q 2086 4493 1708 4301 
Q 1331 4109 1331 3802 
z
M 179 2048 
L 1606 2048 
L 1606 2880 
Q 1197 3034 995 3274 
Q 794 3514 794 3795 
Q 794 4237 1293 4557 
Q 1792 4877 2778 4877 
Q 3789 4877 4281 4553 
Q 4774 4230 4774 3782 
Q 4774 3507 4572 3270 
Q 4371 3034 3968 2880 
L 3968 2048 
L 5376 2048 
L 5376 1613 
L 179 1613 
L 179 2048 
z
" transform="scale(0.015625)"/>
       <path id="KoPubDotumMedium-c2b9" d="M 4774 2701 
Q 4493 2765 4198 2873 
Q 3904 2982 3635 3136 
Q 3366 3283 3142 3478 
Q 2918 3674 2784 3917 
Q 2643 3674 2428 3482 
Q 2214 3290 1946 3136 
Q 1683 2989 1385 2880 
Q 1088 2771 781 2701 
L 448 3078 
Q 838 3162 1209 3299 
Q 1581 3437 1869 3629 
Q 2157 3821 2329 4064 
Q 2502 4307 2502 4614 
L 2502 4826 
L 3059 4826 
L 3059 4614 
Q 3059 4288 3254 4035 
Q 3450 3782 3750 3590 
Q 4051 3405 4409 3277 
Q 4768 3149 5101 3078 
L 4774 2701 
z
M 179 2202 
L 5376 2202 
L 5376 1773 
L 179 1773 
L 179 2202 
z
M 749 173 
Q 749 653 1270 966 
Q 1792 1280 2778 1280 
Q 3763 1280 4284 966 
Q 4806 653 4806 173 
Q 4806 -314 4284 -627 
Q 3763 -941 2778 -941 
Q 1792 -941 1270 -627 
Q 749 -314 749 173 
z
M 1312 173 
Q 1312 -154 1709 -342 
Q 2106 -531 2778 -531 
Q 3424 -531 3830 -345 
Q 4237 -160 4237 166 
Q 4237 499 3830 691 
Q 3424 883 2778 883 
Q 2106 883 1709 697 
Q 1312 512 1312 173 
z
" transform="scale(0.015625)"/>
       <path id="KoPubDotumMedium-c778" d="M 1888 1722 
Q 1555 1722 1280 1840 
Q 1005 1958 813 2170 
Q 614 2374 505 2649 
Q 397 2925 397 3238 
Q 397 3552 505 3827 
Q 614 4102 813 4314 
Q 1005 4518 1280 4640 
Q 1555 4762 1888 4762 
Q 2214 4762 2489 4640 
Q 2765 4518 2963 4314 
Q 3162 4102 3274 3827 
Q 3386 3552 3386 3238 
Q 3386 2925 3274 2649 
Q 3162 2374 2963 2170 
Q 2765 1958 2489 1840 
Q 2214 1722 1888 1722 
z
M 1888 2182 
Q 2349 2182 2605 2489 
Q 2861 2797 2861 3238 
Q 2861 3680 2605 3993 
Q 2349 4307 1888 4307 
Q 1427 4307 1171 3993 
Q 915 3680 915 3238 
Q 915 2797 1171 2489 
Q 1427 2182 1888 2182 
z
M 4416 672 
L 4416 4838 
L 4922 4838 
L 4922 672 
L 4416 672 
z
M 1370 -717 
Q 1293 -717 1264 -688 
Q 1235 -659 1235 -582 
L 1235 1139 
L 1754 1139 
L 1754 -282 
L 5075 -282 
L 5075 -717 
L 1370 -717 
z
" transform="scale(0.015625)"/>
       <path id="DejaVuSans-20" transform="scale(0.015625)"/>
       <path id="KoPubDotumMedium-c5f0" d="M 1882 1741 
Q 1549 1741 1273 1859 
Q 998 1978 806 2189 
Q 608 2394 499 2669 
Q 390 2944 390 3258 
Q 390 3571 499 3846 
Q 608 4122 806 4333 
Q 998 4538 1273 4659 
Q 1549 4781 1882 4781 
Q 2266 4781 2579 4614 
Q 2893 4448 3091 4173 
L 4416 4173 
L 4416 4838 
L 4915 4838 
L 4915 672 
L 4416 672 
L 4416 2432 
L 3149 2432 
Q 2957 2118 2627 1929 
Q 2298 1741 1882 1741 
z
M 3309 3744 
Q 3341 3629 3360 3507 
Q 3379 3386 3379 3258 
Q 3379 3155 3363 3056 
Q 3347 2957 3328 2861 
L 4416 2861 
L 4416 3744 
L 3309 3744 
z
M 1882 2202 
Q 2342 2202 2598 2509 
Q 2854 2816 2854 3258 
Q 2854 3699 2598 4012 
Q 2342 4326 1882 4326 
Q 1421 4326 1165 4012 
Q 909 3699 909 3258 
Q 909 2816 1165 2509 
Q 1421 2202 1882 2202 
z
M 1370 -717 
Q 1293 -717 1264 -688 
Q 1235 -659 1235 -582 
L 1235 1133 
L 1754 1133 
L 1754 -282 
L 5069 -282 
L 5069 -717 
L 1370 -717 
z
" transform="scale(0.015625)"/>
       <path id="KoPubDotumMedium-b3c4" d="M 1005 4531 
L 4742 4531 
L 4742 4096 
L 1376 4096 
L 1376 2202 
L 4800 2202 
L 4800 1773 
L 3034 1773 
L 3034 314 
L 5382 314 
L 5382 -122 
L 173 -122 
L 173 314 
L 2522 314 
L 2522 1773 
L 1005 1773 
Q 922 1773 896 1798 
Q 870 1824 870 1901 
L 870 4397 
Q 870 4474 899 4502 
Q 928 4531 1005 4531 
z
" transform="scale(0.015625)"/>
      </defs>
      <use xlink:href="#KoPubDotumMedium-c0ac"/>
      <use xlink:href="#KoPubDotumMedium-c6a9" x="87.199982"/>
      <use xlink:href="#KoPubDotumMedium-c2b9" x="174.399963"/>
      <use xlink:href="#KoPubDotumMedium-c778" x="261.599945"/>
      <use xlink:href="#DejaVuSans-20" x="348.799927"/>
      <use xlink:href="#KoPubDotumMedium-c5f0" x="380.587036"/>
      <use xlink:href="#KoPubDotumMedium-b3c4" x="467.787018"/>
     </g>
    </g>
   </g>
   <g id="matplotlib.axis_2">
    <g id="ytick_1">
     <g id="line2d_6">
      <defs>
       <path id="m5fdbdd714b" d="M 0 0 
L -3.5 0 
" style="stroke: #000000; stroke-width: 0.2"/>
      </defs>
      <g>
       <use xlink:href="#m5fdbdd714b" x="60.82375" y="37.505" style="stroke: #000000; stroke-width: 0.2"/>
      </g>
     </g>
     <g id="text_7">
      <!-- 음식 -->
      <g transform="translate(39.87125 40.544375) scale(0.08 -0.08)">
       <defs>
        <path id="KoPubDotumMedium-c74c" d="M 787 3750 
Q 787 4256 1296 4569 
Q 1805 4883 2784 4883 
Q 3763 4883 4268 4566 
Q 4774 4250 4774 3750 
Q 4774 3238 4272 2940 
Q 3770 2643 2784 2643 
Q 1805 2643 1296 2940 
Q 787 3238 787 3750 
z
M 4230 3750 
Q 4230 4109 3830 4301 
Q 3430 4493 2784 4493 
Q 2125 4493 1728 4304 
Q 1331 4115 1331 3750 
Q 1331 3386 1721 3213 
Q 2112 3040 2784 3040 
Q 3437 3040 3833 3213 
Q 4230 3386 4230 3750 
z
M 5376 1792 
L 179 1792 
L 179 2221 
L 5376 2221 
L 5376 1792 
z
M 1376 -352 
L 4166 -352 
L 4166 755 
L 1376 755 
L 1376 -352 
z
M 1011 1171 
L 4544 1171 
Q 4621 1171 4649 1142 
Q 4678 1114 4678 1037 
L 4678 -634 
Q 4678 -710 4649 -739 
Q 4621 -768 4544 -768 
L 1011 -768 
Q 934 -768 905 -739 
Q 877 -710 877 -634 
L 877 1037 
Q 877 1114 905 1142 
Q 934 1171 1011 1171 
z
" transform="scale(0.015625)"/>
        <path id="KoPubDotumMedium-c2dd" d="M 141 1958 
Q 813 2272 1245 2768 
Q 1677 3264 1677 4000 
L 1677 4698 
L 2208 4698 
L 2208 4000 
Q 2208 3661 2323 3376 
Q 2438 3091 2643 2861 
Q 2842 2624 3114 2448 
Q 3386 2272 3693 2163 
L 3366 1773 
Q 2925 1984 2537 2288 
Q 2150 2592 1939 3021 
Q 1786 2579 1408 2224 
Q 1030 1869 544 1619 
L 141 1958 
z
M 4928 4838 
L 4928 1453 
L 4429 1453 
L 4429 4838 
L 4928 4838 
z
M 4787 1146 
Q 4864 1146 4893 1117 
Q 4922 1088 4922 1011 
L 4922 -870 
L 4410 -870 
L 4410 710 
L 1158 710 
L 1158 1146 
L 4787 1146 
z
" transform="scale(0.015625)"/>
       </defs>
       <use xlink:href="#KoPubDotumMedium-c74c"/>
       <use xlink:href="#KoPubDotumMedium-c2dd" x="87.199982"/>
      </g>
     </g>
    </g>
    <g id="ytick_2">
     <g id="line2d_7">
      <g>
       <use xlink:href="#m5fdbdd714b" x="60.82375" y="98.115" style="stroke: #000000; stroke-width: 0.2"/>
      </g>
     </g>
     <g id="text_8">
      <!-- 생활서비스 -->
      <g transform="translate(18.9425 101.154375) scale(0.08 -0.08)">
       <defs>
        <path id="KoPubDotumMedium-c0dd" d="M 2720 1837 
Q 2355 2061 2070 2349 
Q 1786 2637 1619 3046 
Q 1466 2598 1181 2259 
Q 896 1920 518 1651 
L 102 1990 
Q 768 2406 1056 2912 
Q 1344 3418 1344 4147 
L 1344 4672 
L 1869 4672 
L 1869 4141 
Q 1869 3450 2176 2963 
Q 2483 2477 3053 2202 
L 2720 1837 
z
M 3808 4742 
L 3808 3462 
L 4506 3462 
L 4506 4838 
L 4992 4838 
L 4992 1389 
L 4506 1389 
L 4506 3008 
L 3808 3008 
L 3808 1587 
L 3315 1587 
L 3315 4742 
L 3808 4742 
z
M 1062 218 
Q 1062 742 1600 1056 
Q 2138 1370 3059 1370 
Q 3981 1370 4512 1053 
Q 5043 736 5043 218 
Q 5043 -307 4521 -620 
Q 4000 -934 3059 -934 
Q 2138 -934 1600 -627 
Q 1062 -320 1062 218 
z
M 1606 218 
Q 1606 32 1718 -109 
Q 1830 -250 2022 -346 
Q 2221 -442 2486 -490 
Q 2752 -538 3059 -538 
Q 3674 -538 4083 -342 
Q 4493 -147 4493 211 
Q 4493 576 4083 771 
Q 3674 966 3059 966 
Q 2746 966 2480 918 
Q 2214 870 2022 774 
Q 1824 678 1715 537 
Q 1606 397 1606 218 
z
" transform="scale(0.015625)"/>
        <path id="KoPubDotumMedium-d65c" d="M 538 4288 
L 3661 4288 
L 3661 3930 
L 538 3930 
L 538 4288 
z
M 1312 4890 
L 2893 4890 
L 2893 4538 
L 1312 4538 
L 1312 4890 
z
M 2093 3738 
Q 2688 3738 3059 3542 
Q 3430 3347 3430 3034 
Q 3430 2765 3132 2585 
Q 2835 2406 2368 2368 
L 2368 1978 
Q 2528 1978 2755 1990 
Q 2982 2003 3219 2022 
Q 3456 2042 3677 2064 
Q 3898 2086 4058 2112 
L 4058 1754 
Q 3648 1690 3049 1645 
Q 2451 1600 1818 1600 
L 282 1600 
L 282 1965 
L 1837 1965 
L 1837 2368 
Q 1357 2406 1056 2582 
Q 755 2758 755 3027 
Q 755 3341 1126 3539 
Q 1498 3738 2093 3738 
z
M 2093 3398 
Q 1709 3398 1488 3296 
Q 1267 3194 1267 3021 
Q 1267 2867 1488 2768 
Q 1709 2669 2093 2669 
Q 2470 2669 2691 2768 
Q 2912 2867 2912 3021 
Q 2912 3194 2691 3296 
Q 2470 3398 2093 3398 
z
M 4774 4838 
L 4774 3450 
L 5568 3450 
L 5568 3014 
L 4774 3014 
L 4774 1491 
L 4282 1491 
L 4282 4838 
L 4774 4838 
z
M 4646 1216 
Q 4723 1216 4752 1187 
Q 4781 1158 4781 1082 
L 4781 192 
Q 4781 115 4752 86 
Q 4723 58 4646 58 
L 1702 58 
L 1702 -403 
L 4922 -403 
L 4922 -781 
L 1299 -781 
Q 1222 -781 1193 -752 
Q 1165 -723 1165 -646 
L 1165 282 
Q 1165 358 1193 387 
Q 1222 416 1299 416 
L 4243 416 
L 4243 832 
L 1165 832 
L 1165 1216 
L 4646 1216 
z
" transform="scale(0.015625)"/>
        <path id="KoPubDotumMedium-c11c" d="M 3174 3142 
L 4416 3142 
L 4416 4838 
L 4928 4838 
L 4928 -832 
L 4416 -832 
L 4416 2688 
L 3174 2688 
L 3174 3142 
z
M 2195 3501 
Q 2195 3059 2291 2678 
Q 2387 2298 2573 1984 
Q 2771 1626 3075 1334 
Q 3379 1043 3757 819 
Q 3661 742 3552 633 
Q 3443 525 3379 454 
Q 3174 589 2969 765 
Q 2765 941 2592 1152 
Q 2394 1382 2227 1651 
Q 2061 1920 1946 2234 
Q 1869 1952 1715 1677 
Q 1562 1402 1370 1152 
Q 1171 890 947 672 
Q 723 454 512 314 
Q 435 384 307 483 
Q 179 582 70 653 
Q 454 890 758 1206 
Q 1062 1523 1274 1901 
Q 1472 2266 1574 2691 
Q 1677 3117 1677 3590 
L 1677 4621 
L 2195 4621 
L 2195 3501 
z
" transform="scale(0.015625)"/>
        <path id="KoPubDotumMedium-be44" d="M 1152 1011 
L 2758 1011 
L 2758 2650 
L 1152 2650 
L 1152 1011 
z
M 646 704 
L 646 4563 
L 1152 4563 
L 1152 3098 
L 2758 3098 
L 2758 4563 
L 3251 4563 
L 3251 704 
Q 3251 627 3222 598 
Q 3194 570 3117 570 
L 781 570 
Q 704 570 675 598 
Q 646 627 646 704 
z
M 4883 4838 
L 4883 -832 
L 4384 -832 
L 4384 4838 
L 4883 4838 
z
" transform="scale(0.015625)"/>
        <path id="KoPubDotumMedium-c2a4" d="M 3053 4128 
Q 3053 3763 3229 3414 
Q 3405 3066 3699 2765 
Q 3994 2470 4371 2243 
Q 4749 2016 5152 1894 
L 4794 1517 
Q 4512 1613 4208 1782 
Q 3904 1952 3629 2182 
Q 3354 2406 3130 2678 
Q 2906 2950 2790 3258 
Q 2662 2957 2444 2688 
Q 2227 2419 1952 2195 
Q 1677 1971 1373 1795 
Q 1069 1619 781 1510 
L 397 1901 
Q 781 2016 1161 2230 
Q 1542 2445 1837 2733 
Q 2138 3021 2323 3376 
Q 2509 3731 2509 4128 
L 2509 4614 
L 3053 4614 
L 3053 4128 
z
M 5382 -51 
L 173 -51 
L 173 384 
L 5382 384 
L 5382 -51 
z
" transform="scale(0.015625)"/>
       </defs>
       <use xlink:href="#KoPubDotumMedium-c0dd"/>
       <use xlink:href="#KoPubDotumMedium-d65c" x="87.199982"/>
       <use xlink:href="#KoPubDotumMedium-c11c" x="174.399963"/>
       <use xlink:href="#KoPubDotumMedium-be44" x="261.599945"/>
       <use xlink:href="#KoPubDotumMedium-c2a4" x="348.799927"/>
      </g>
     </g>
    </g>
    <g id="ytick_3">
     <g id="line2d_8">
      <g>
       <use xlink:href="#m5fdbdd714b" x="60.82375" y="158.725" style="stroke: #000000; stroke-width: 0.2"/>
      </g>
     </g>
     <g id="text_9">
      <!-- 소매 -->
      <g transform="translate(39.87125 161.764375) scale(0.08 -0.08)">
       <defs>
        <path id="KoPubDotumMedium-c18c" d="M 3046 4141 
Q 3046 3750 3238 3395 
Q 3430 3040 3731 2746 
Q 4032 2458 4406 2243 
Q 4781 2029 5139 1926 
L 4787 1542 
Q 4480 1658 4176 1827 
Q 3872 1997 3603 2214 
Q 3334 2438 3120 2697 
Q 2906 2957 2784 3258 
Q 2509 2656 1968 2221 
Q 1427 1786 774 1536 
L 397 1926 
Q 781 2042 1158 2256 
Q 1536 2470 1830 2752 
Q 2131 3040 2316 3392 
Q 2502 3744 2502 4141 
L 2502 4608 
L 3046 4608 
L 3046 4141 
z
M 5382 -115 
L 173 -115 
L 173 320 
L 2515 320 
L 2515 1747 
L 3034 1747 
L 3034 320 
L 5382 320 
L 5382 -115 
z
" transform="scale(0.015625)"/>
        <path id="KoPubDotumMedium-b9e4" d="M 1094 1056 
L 2157 1056 
L 2157 4038 
L 1094 4038 
L 1094 1056 
z
M 742 4467 
L 2502 4467 
Q 2579 4467 2608 4438 
Q 2637 4410 2637 4333 
L 2637 755 
Q 2637 678 2608 649 
Q 2579 621 2502 621 
L 742 621 
Q 666 621 637 649 
Q 608 678 608 755 
L 608 4333 
Q 608 4410 637 4438 
Q 666 4467 742 4467 
z
M 3750 4742 
L 3750 2899 
L 4493 2899 
L 4493 4838 
L 4986 4838 
L 4986 -838 
L 4493 -838 
L 4493 2413 
L 3750 2413 
L 3750 -563 
L 3264 -563 
L 3264 4742 
L 3750 4742 
z
" transform="scale(0.015625)"/>
       </defs>
       <use xlink:href="#KoPubDotumMedium-c18c"/>
       <use xlink:href="#KoPubDotumMedium-b9e4" x="87.199982"/>
      </g>
     </g>
    </g>
    <g id="ytick_4">
     <g id="line2d_9">
      <g>
       <use xlink:href="#m5fdbdd714b" x="60.82375" y="219.335" style="stroke: #000000; stroke-width: 0.2"/>
      </g>
     </g>
     <g id="text_10">
      <!-- 부동산 -->
      <g transform="translate(32.895 222.374375) scale(0.08 -0.08)">
       <defs>
        <path id="KoPubDotumMedium-bd80" d="M 1370 2643 
L 4173 2643 
L 4173 3571 
L 1370 3571 
L 1370 2643 
z
M 870 2349 
L 870 4717 
L 1370 4717 
L 1370 3987 
L 4173 3987 
L 4173 4717 
L 4678 4717 
L 4678 2349 
Q 4678 2272 4649 2243 
Q 4621 2214 4544 2214 
L 1005 2214 
Q 928 2214 899 2243 
Q 870 2272 870 2349 
z
M 5376 1062 
L 3053 1062 
L 3053 -832 
L 2541 -832 
L 2541 1062 
L 179 1062 
L 179 1498 
L 5376 1498 
L 5376 1062 
z
" transform="scale(0.015625)"/>
        <path id="KoPubDotumMedium-b3d9" d="M 1011 4672 
L 4691 4672 
L 4691 4256 
L 1382 4256 
L 1382 3270 
L 4749 3270 
L 4749 2848 
L 3034 2848 
L 3034 2080 
L 5376 2080 
L 5376 1645 
L 179 1645 
L 179 2080 
L 2515 2080 
L 2515 2848 
L 1011 2848 
Q 928 2848 902 2873 
Q 877 2899 877 2976 
L 877 4538 
Q 877 4614 905 4643 
Q 934 4672 1011 4672 
z
M 742 154 
Q 742 627 1267 937 
Q 1792 1248 2778 1248 
Q 3757 1248 4285 937 
Q 4813 627 4813 154 
Q 4813 -326 4288 -633 
Q 3763 -941 2778 -941 
Q 1792 -941 1267 -633 
Q 742 -326 742 154 
z
M 1299 160 
Q 1299 -186 1702 -368 
Q 2106 -550 2778 -550 
Q 3424 -550 3840 -368 
Q 4256 -186 4256 160 
Q 4256 486 3840 672 
Q 3424 858 2778 858 
Q 2106 858 1702 675 
Q 1299 493 1299 160 
z
" transform="scale(0.015625)"/>
        <path id="KoPubDotumMedium-c0b0" d="M 3232 1690 
Q 3053 1773 2851 1904 
Q 2650 2035 2458 2202 
Q 2266 2374 2096 2576 
Q 1926 2778 1824 3008 
Q 1734 2758 1580 2540 
Q 1427 2323 1235 2131 
Q 1043 1946 828 1792 
Q 614 1638 403 1523 
L 13 1875 
Q 326 2022 604 2230 
Q 883 2438 1094 2701 
Q 1306 2963 1427 3286 
Q 1549 3610 1549 3994 
L 1549 4698 
L 2080 4698 
L 2080 4038 
Q 2080 3680 2201 3369 
Q 2323 3059 2534 2810 
Q 2739 2560 3008 2374 
Q 3277 2189 3565 2086 
L 3232 1690 
z
M 4672 4838 
L 4672 3149 
L 5453 3149 
L 5453 2701 
L 4672 2701 
L 4672 678 
L 4173 678 
L 4173 4838 
L 4672 4838 
z
M 1120 1094 
L 1626 1094 
L 1626 -282 
L 4851 -282 
L 4851 -717 
L 1254 -717 
Q 1178 -717 1149 -688 
Q 1120 -659 1120 -582 
L 1120 1094 
z
" transform="scale(0.015625)"/>
       </defs>
       <use xlink:href="#KoPubDotumMedium-bd80"/>
       <use xlink:href="#KoPubDotumMedium-b3d9" x="87.199982"/>
       <use xlink:href="#KoPubDotumMedium-c0b0" x="174.399963"/>
      </g>
     </g>
    </g>
    <g id="text_11">
     <!-- 상가 업종 -->
     <g transform="translate(13.27875 143.64375) rotate(-90) scale(0.08 -0.08)">
      <defs>
       <path id="KoPubDotumMedium-c0c1" d="M 19 2061 
Q 346 2208 624 2406 
Q 902 2605 1114 2867 
Q 1318 3123 1436 3446 
Q 1555 3770 1555 4173 
L 1555 4698 
L 2086 4698 
L 2086 4166 
Q 2086 3802 2208 3498 
Q 2330 3194 2534 2957 
Q 2739 2714 3008 2544 
Q 3277 2374 3565 2272 
L 3238 1875 
Q 3059 1965 2857 2086 
Q 2656 2208 2464 2368 
Q 2272 2522 2105 2714 
Q 1939 2906 1830 3136 
Q 1741 2893 1587 2681 
Q 1434 2470 1242 2285 
Q 1050 2106 835 1958 
Q 621 1811 410 1702 
L 19 2061 
z
M 4672 4838 
L 4672 3514 
L 5466 3514 
L 5466 3078 
L 4672 3078 
L 4672 1414 
L 4173 1414 
L 4173 4838 
L 4672 4838 
z
M 2880 -941 
Q 2003 -941 1481 -633 
Q 960 -326 960 198 
Q 960 454 1097 668 
Q 1235 883 1485 1030 
Q 1734 1178 2086 1261 
Q 2438 1344 2874 1344 
Q 3757 1344 4278 1030 
Q 4800 717 4800 198 
Q 4800 -333 4281 -637 
Q 3763 -941 2880 -941 
z
M 1498 198 
Q 1498 26 1603 -112 
Q 1709 -250 1894 -346 
Q 2080 -442 2329 -493 
Q 2579 -544 2874 -544 
Q 3475 -544 3872 -349 
Q 4269 -154 4269 192 
Q 4269 538 3875 733 
Q 3482 928 2874 928 
Q 2579 928 2326 877 
Q 2074 826 1888 736 
Q 1702 640 1600 505 
Q 1498 371 1498 198 
z
" transform="scale(0.015625)"/>
       <path id="KoPubDotumMedium-ac00" d="M 595 4512 
L 2970 4512 
Q 3046 4512 3081 4483 
Q 3117 4454 3117 4378 
Q 3085 3712 2899 3117 
Q 2714 2522 2394 2010 
Q 2080 1498 1641 1075 
Q 1203 653 678 346 
L 269 698 
Q 1254 1216 1859 2077 
Q 2464 2938 2547 4070 
L 595 4070 
L 595 4512 
z
M 5498 2099 
L 4659 2099 
L 4659 -838 
L 4147 -838 
L 4147 4838 
L 4659 4838 
L 4659 2560 
L 5498 2560 
L 5498 2099 
z
" transform="scale(0.015625)"/>
       <path id="KoPubDotumMedium-c5c5" d="M 1850 2010 
Q 1555 2010 1289 2112 
Q 1024 2214 826 2400 
Q 627 2579 512 2835 
Q 397 3091 397 3392 
Q 397 3693 509 3945 
Q 621 4198 819 4378 
Q 1018 4563 1283 4665 
Q 1549 4768 1850 4768 
Q 2118 4768 2368 4678 
Q 2618 4589 2810 4435 
Q 3008 4275 3136 4057 
Q 3264 3840 3302 3584 
L 4403 3584 
L 4403 4838 
L 4902 4838 
L 4902 1856 
L 4403 1856 
L 4403 3142 
L 3290 3142 
Q 3238 2893 3110 2681 
Q 2982 2470 2790 2323 
Q 2598 2176 2355 2093 
Q 2112 2010 1850 2010 
z
M 896 3386 
Q 896 3194 966 3024 
Q 1037 2854 1171 2733 
Q 1299 2605 1472 2534 
Q 1645 2464 1850 2464 
Q 2272 2464 2537 2733 
Q 2803 3002 2803 3386 
Q 2803 3776 2531 4048 
Q 2259 4320 1850 4320 
Q 1645 4320 1472 4243 
Q 1299 4166 1171 4045 
Q 1037 3917 966 3747 
Q 896 3578 896 3386 
z
M 1722 -358 
L 4403 -358 
L 4403 435 
L 1722 435 
L 1722 -358 
z
M 4896 -640 
Q 4896 -717 4867 -745 
Q 4838 -774 4762 -774 
L 1357 -774 
Q 1280 -774 1251 -745 
Q 1222 -717 1222 -640 
L 1222 1555 
L 1722 1555 
L 1722 851 
L 4403 851 
L 4403 1555 
L 4896 1555 
L 4896 -640 
z
" transform="scale(0.015625)"/>
       <path id="KoPubDotumMedium-c885" d="M 4730 4256 
L 3072 4256 
Q 3078 3994 3283 3782 
Q 3488 3571 3789 3418 
Q 4083 3258 4428 3158 
Q 4774 3059 5075 3021 
L 4755 2643 
Q 4518 2682 4230 2765 
Q 3942 2848 3667 2982 
Q 3392 3110 3152 3292 
Q 2912 3475 2778 3725 
Q 2643 3501 2425 3325 
Q 2208 3149 1946 3014 
Q 1677 2880 1379 2787 
Q 1082 2694 787 2643 
L 467 3027 
Q 800 3078 1152 3180 
Q 1504 3283 1798 3437 
Q 2086 3590 2275 3795 
Q 2464 4000 2477 4256 
L 826 4256 
L 826 4672 
L 4730 4672 
L 4730 4256 
z
M 3040 2906 
L 3040 2054 
L 5376 2054 
L 5376 1619 
L 186 1619 
L 186 2054 
L 2522 2054 
L 2522 2906 
L 3040 2906 
z
M 749 109 
Q 749 570 1257 864 
Q 1766 1158 2784 1158 
Q 3802 1158 4304 857 
Q 4806 557 4806 102 
Q 4806 -346 4307 -646 
Q 3808 -947 2784 -947 
Q 1760 -947 1254 -646 
Q 749 -346 749 109 
z
M 1306 109 
Q 1306 -205 1693 -381 
Q 2080 -557 2784 -557 
Q 3456 -557 3849 -381 
Q 4243 -205 4243 102 
Q 4243 422 3852 601 
Q 3462 781 2784 781 
Q 2080 781 1693 601 
Q 1306 422 1306 109 
z
" transform="scale(0.015625)"/>
      </defs>
      <use xlink:href="#KoPubDotumMedium-c0c1"/>
      <use xlink:href="#KoPubDotumMedium-ac00" x="87.199982"/>
      <use xlink:href="#DejaVuSans-20" x="174.399963"/>
      <use xlink:href="#KoPubDotumMedium-c5c5" x="206.187073"/>
      <use xlink:href="#KoPubDotumMedium-c885" x="293.387054"/>
     </g>
    </g>
   </g>
   <g id="line2d_10">
    <path d="M 266.18335 13.261 
L 266.18335 61.749 
" clip-path="url(#pffdae9413f)" style="fill: none; stroke: #262626; stroke-opacity: 0.45; stroke-width: 0.3"/>
   </g>
   <g id="line2d_11">
    <path d="M 273.38895 73.871 
L 273.38895 122.359 
" clip-path="url(#pffdae9413f)" style="fill: none; stroke: #262626; stroke-opacity: 0.45; stroke-width: 0.3"/>
   </g>
   <g id="line2d_12">
    <path d="M 276.99175 134.481 
L 276.99175 182.969 
" clip-path="url(#pffdae9413f)" style="fill: none; stroke: #262626; stroke-opacity: 0.45; stroke-width: 0.3"/>
   </g>
   <g id="line2d_13">
    <path d="M 230.15535 195.091 
L 230.15535 243.579 
" clip-path="url(#pffdae9413f)" style="fill: none; stroke: #262626; stroke-opacity: 0.45; stroke-width: 0.3"/>
   </g>
   <g id="patch_3">
    <path d="M 60.82375 249.64 
L 60.82375 7.2 
" style="fill: none; stroke: #000000; stroke-width: 0.2; stroke-linejoin: miter; stroke-linecap: square"/>
   </g>
   <g id="patch_4">
    <path d="M 421.10375 249.64 
L 421.10375 7.2 
" style="fill: none; stroke: #000000; stroke-width: 0.2; stroke-linejoin: miter; stroke-linecap: square"/>
   </g>
   <g id="patch_5">
    <path d="M 60.82375 249.64 
L 421.10375 249.64 
" style="fill: none; stroke: #000000; stroke-width: 0.2; stroke-linejoin: miter; stroke-linecap: square"/>
   </g>
   <g id="patch_6">
    <path d="M 60.82375 7.2 
L 421.10375 7.2 
" style="fill: none; stroke: #000000; stroke-width: 0.2; stroke-linejoin: miter; stroke-linecap: square"/>
   </g>
  </g>
 </g>
 <defs>
  <clipPath id="pffdae9413f">
   <rect x="60.82375" y="7.2" width="360.28" height="242.44"/>
  </clipPath>
 </defs>
</svg>
